<svg width="474" height="543" viewBox="0 0 474 543" fill="none" xmlns="http://www.w3.org/2000/svg">
<rect x="1" width="473" height="532" rx="12" fill="white"/>
<path d="M1 12C1 5.37258 6.37258 0 13 0H461C467.627 0 473 5.37258 473 12V81H1V12Z" fill="#FFC800"/>
<g clip-path="url(#clip0_3087_17644)">
<path d="M441.853 24H416.147C414.409 24 413 25.4091 413 27.1472V52.8528C413 54.5909 414.409 56 416.147 56H441.853C443.591 56 445 54.5909 445 52.8528V27.1472C445 25.4091 443.591 24 441.853 24Z" fill="#00283C"/>
<path d="M436.645 43.4345C436.502 43.1165 436.325 42.8155 436.115 42.537C434.188 39.9791 430.206 42.6528 431.836 45.4097C431.895 45.5098 431.949 45.613 431.997 45.7188L434.34 51.0271C434.374 51.1041 434.429 51.1697 434.5 51.2156C434.57 51.2616 434.653 51.286 434.737 51.2858H439.824C439.855 51.2857 439.885 51.278 439.912 51.2632C439.94 51.2484 439.963 51.2271 439.98 51.2012C439.997 51.1752 440.007 51.1455 440.009 51.1146C440.012 51.0837 440.007 51.0527 439.995 51.0243L436.673 43.498L436.645 43.4345Z" fill="#D059FF"/>
<path d="M423.477 28.7144H419.171C418.931 28.7144 418.736 28.9088 418.736 29.1486V50.8524C418.736 51.0922 418.931 51.2867 419.171 51.2867H423.477C423.717 51.2867 423.911 51.0922 423.911 50.8524V29.1486C423.911 28.9088 423.717 28.7144 423.477 28.7144Z" fill="#00E043"/>
<path d="M426.984 37.1521C426.604 37.5937 426.396 38.1572 426.396 38.7397V38.7397C426.396 40.996 429.205 42.0327 430.67 40.318L440.324 29.0225C440.347 28.9954 440.362 28.9622 440.367 28.9268C440.372 28.8915 440.366 28.8554 440.351 28.823C440.336 28.7906 440.313 28.7631 440.282 28.7438C440.252 28.7246 440.217 28.7144 440.182 28.7144H434.447C434.384 28.7144 434.322 28.7278 434.266 28.7538C434.209 28.7797 434.158 28.8175 434.117 28.8647L426.984 37.1521Z" fill="#FFC800"/>
</g>
<path d="M40.56 48.16C37 48.16 33.7 45.78 33.7 41C33.7 36.22 37.08 33.84 40.74 33.84C44.1 33.84 46.48 35.6 47.02 38.5L44.34 39.06C44 37.3 42.6 36.18 40.72 36.18C38.22 36.18 36.44 37.94 36.44 41C36.44 44.06 38.22 45.8 40.68 45.8C42.8 45.8 44.22 44.54 44.36 42.72H40.2V40.52H46.88V48H44.42V46.3C43.8 47.44 42.26 48.16 40.56 48.16ZM48.7191 42.96C48.7191 40.34 50.3591 37.76 53.6991 37.76C57.0991 37.76 58.7591 40.28 58.7591 42.62C58.7591 42.98 58.7391 43.42 58.7191 43.62H51.2391C51.4591 45.14 52.4391 46.04 53.8791 46.04C55.0591 46.04 55.8991 45.48 56.1591 44.5L58.5191 45.14C57.9591 47.04 56.1991 48.16 53.8391 48.16C50.4991 48.16 48.7191 45.58 48.7191 42.96ZM51.2991 41.78H56.0591C55.9391 40.58 55.1591 39.68 53.6991 39.68C52.4591 39.68 51.5791 40.42 51.2991 41.78ZM66.4695 47.9C65.9695 48.08 65.4295 48.16 64.8495 48.16C62.8095 48.16 61.2895 47.06 61.2895 44.7V40.04H59.5895V37.92H61.2895V34.96H63.8095V37.92H66.3495V40.04H63.8095V44.46C63.8095 45.42 64.3295 45.94 65.1095 45.94C65.4895 45.94 65.9295 45.88 66.2895 45.7L66.4695 47.9ZM79.6091 37.92H82.1891L76.8691 51.64H74.3091L75.8691 47.6L71.9491 37.92H74.6891L77.1091 44.4L79.6091 37.92ZM87.8658 48.16C84.8058 48.16 82.6058 45.96 82.6058 42.96C82.6058 39.96 84.8058 37.76 87.8658 37.76C90.9258 37.76 93.1258 39.96 93.1258 42.96C93.1258 45.96 90.9258 48.16 87.8658 48.16ZM85.1458 42.96C85.1458 44.76 86.2258 45.98 87.8658 45.98C89.4858 45.98 90.5858 44.76 90.5858 42.96C90.5858 41.16 89.4858 39.94 87.8658 39.94C86.2258 39.94 85.1458 41.16 85.1458 42.96ZM104.421 37.92V48H101.901V46.48C101.261 47.46 100.121 48.16 98.7008 48.16C96.5008 48.16 95.0208 46.72 95.0208 44.52V37.92H97.5408V43.92C97.5408 45.1 98.2808 45.92 99.4608 45.92C101.001 45.92 101.901 44.6 101.901 42.34V37.92H104.421ZM113.357 40.36C112.997 40.2 112.517 40.12 112.077 40.12C110.657 40.12 109.377 41.3 109.377 44.3V48H106.857V37.92H109.377V39.76C109.877 38.62 111.197 37.76 112.417 37.76C112.777 37.76 113.217 37.82 113.517 37.92L113.357 40.36ZM119.786 48V37.92H122.306V48H119.786ZM119.486 34.82C119.486 33.96 120.146 33.28 121.046 33.28C121.966 33.28 122.646 33.96 122.646 34.82C122.646 35.7 121.966 36.38 121.046 36.38C120.146 36.38 119.486 35.7 119.486 34.82ZM124.747 48V37.92H127.267V39.44C127.907 38.46 129.047 37.76 130.467 37.76C132.667 37.76 134.147 39.2 134.147 41.4V48H131.627V42C131.627 40.82 130.887 40 129.707 40C128.167 40 127.267 41.32 127.267 43.58V48H124.747ZM138.774 48L135.094 37.92H137.634L139.934 45.08L142.234 37.92H144.794L141.114 48H138.774ZM150.463 48.16C147.403 48.16 145.203 45.96 145.203 42.96C145.203 39.96 147.403 37.76 150.463 37.76C153.523 37.76 155.723 39.96 155.723 42.96C155.723 45.96 153.523 48.16 150.463 48.16ZM147.743 42.96C147.743 44.76 148.823 45.98 150.463 45.98C152.083 45.98 153.183 44.76 153.183 42.96C153.183 41.16 152.083 39.94 150.463 39.94C148.823 39.94 147.743 41.16 147.743 42.96ZM157.618 48V37.92H160.138V48H157.618ZM157.318 34.82C157.318 33.96 157.978 33.28 158.878 33.28C159.798 33.28 160.478 33.96 160.478 34.82C160.478 35.7 159.798 36.38 158.878 36.38C157.978 36.38 157.318 35.7 157.318 34.82ZM167.159 48.16C164.139 48.16 162.039 46.04 162.039 42.96C162.039 39.88 164.139 37.76 167.159 37.76C169.739 37.76 171.559 39.1 171.899 41.24L169.439 41.72C169.259 40.66 168.419 39.94 167.239 39.94C165.679 39.94 164.659 41.12 164.659 42.96C164.659 44.8 165.679 45.98 167.239 45.98C168.419 45.98 169.199 45.34 169.439 44.26L171.899 44.76C171.519 46.88 169.699 48.16 167.159 48.16ZM173.25 42.96C173.25 40.34 174.89 37.76 178.23 37.76C181.63 37.76 183.29 40.28 183.29 42.62C183.29 42.98 183.27 43.42 183.25 43.62H175.77C175.99 45.14 176.97 46.04 178.41 46.04C179.59 46.04 180.43 45.48 180.69 44.5L183.05 45.14C182.49 47.04 180.73 48.16 178.37 48.16C175.03 48.16 173.25 45.58 173.25 42.96ZM175.83 41.78H180.59C180.47 40.58 179.69 39.68 178.23 39.68C176.99 39.68 176.11 40.42 175.83 41.78ZM190.881 48V40.04H189.261V37.92H190.881V37.14C190.881 34.78 192.401 33.5 194.441 33.5C194.961 33.5 195.481 33.58 195.961 33.72L195.781 35.8C195.441 35.66 195.101 35.6 194.781 35.6C193.941 35.6 193.401 36.2 193.401 37.14V37.92H195.801V40.04H193.401V48H190.881ZM206.765 37.92V48H204.245V46.48C203.605 47.46 202.465 48.16 201.045 48.16C198.845 48.16 197.365 46.72 197.365 44.52V37.92H199.885V43.92C199.885 45.1 200.625 45.92 201.805 45.92C203.345 45.92 204.245 44.6 204.245 42.34V37.92H206.765ZM209.2 48V37.92H211.72V39.44C212.36 38.46 213.5 37.76 214.92 37.76C217.12 37.76 218.6 39.2 218.6 41.4V48H216.08V42C216.08 40.82 215.34 40 214.16 40C212.62 40 211.72 41.32 211.72 43.58V48H209.2ZM225.296 48.16C222.276 48.16 220.496 46.04 220.496 42.96C220.496 39.88 222.276 37.76 225.256 37.76C226.516 37.76 227.596 38.28 228.176 39.04V33.84H230.696V48H228.176V46.84C227.676 47.64 226.556 48.16 225.296 48.16ZM222.996 42.96C222.996 44.78 224.056 45.98 225.656 45.98C227.276 45.98 228.336 44.78 228.336 42.96C228.336 41.14 227.276 39.94 225.656 39.94C224.056 39.94 222.996 41.14 222.996 42.96ZM232.606 42.96C232.606 40.34 234.246 37.76 237.586 37.76C240.986 37.76 242.646 40.28 242.646 42.62C242.646 42.98 242.626 43.42 242.606 43.62H235.126C235.346 45.14 236.326 46.04 237.766 46.04C238.946 46.04 239.786 45.48 240.046 44.5L242.406 45.14C241.846 47.04 240.086 48.16 237.726 48.16C234.386 48.16 232.606 45.58 232.606 42.96ZM235.186 41.78H239.946C239.826 40.58 239.046 39.68 237.586 39.68C236.346 39.68 235.466 40.42 235.186 41.78ZM248.812 48.16C245.792 48.16 244.012 46.04 244.012 42.96C244.012 39.88 245.792 37.76 248.772 37.76C250.032 37.76 251.112 38.28 251.692 39.04V33.84H254.212V48H251.692V46.84C251.192 47.64 250.072 48.16 248.812 48.16ZM246.512 42.96C246.512 44.78 247.572 45.98 249.172 45.98C250.792 45.98 251.852 44.78 251.852 42.96C251.852 41.14 250.792 39.94 249.172 39.94C247.572 39.94 246.512 41.14 246.512 42.96Z" fill="black"/>
<path d="M47.632 141.796C46.96 142.412 46.232 142.72 45.308 142.888V141.754C46.288 141.544 47.142 141.04 47.828 140.2H48.836V150H47.632V141.796ZM54.3395 150.112C51.8755 150.112 50.5875 148.11 50.5875 145.1C50.5875 142.09 51.8755 140.088 54.3395 140.088C56.7755 140.088 58.0915 142.09 58.0915 145.1C58.0915 148.11 56.7755 150.112 54.3395 150.112ZM51.8895 145.1C51.8895 147.452 52.7295 148.964 54.3395 148.964C55.9215 148.964 56.7755 147.452 56.7755 145.1C56.7755 142.748 55.9215 141.222 54.3395 141.222C52.7295 141.222 51.8895 142.748 51.8895 145.1ZM59.6989 150C60.0209 147.186 61.8829 144.036 64.0529 141.334H58.5509V140.2H65.3689V141.334C63.1429 144.204 61.2389 147.34 61.0009 150H59.6989ZM69.5889 143.434C71.6049 143.434 73.0469 144.834 73.0469 146.766C73.0469 148.726 71.5629 150.112 69.4909 150.112C67.3069 150.112 65.8509 148.348 65.8509 145.632C65.8509 142.034 67.7549 140.088 70.3869 140.088C71.3669 140.088 72.3189 140.396 73.0609 140.984L72.4169 141.978C71.8289 141.474 71.1149 141.222 70.3729 141.222C68.4829 141.222 67.0829 142.776 67.0409 144.904C67.4889 144.008 68.4969 143.434 69.5889 143.434ZM67.2509 146.724C67.2509 148.026 68.1889 148.964 69.5049 148.964C70.8209 148.964 71.7449 148.026 71.7589 146.724C71.7589 145.436 70.8209 144.512 69.5049 144.512C68.1889 144.512 67.2509 145.436 67.2509 146.724ZM77.7807 150.112C75.8907 150.112 74.5047 149.048 74.2527 147.41L75.4427 147.2C75.6247 148.278 76.5207 148.964 77.7527 148.964C79.0547 148.964 79.8947 148.082 79.8947 146.752C79.8947 145.394 79.0267 144.554 77.6127 144.554C76.6747 144.554 75.9327 144.988 75.4427 145.73L74.5187 145.534L75.2887 140.2H80.5107V141.334H76.2267L75.8067 144.274C76.3107 143.798 77.1087 143.462 77.8227 143.462C79.8527 143.462 81.2107 144.778 81.2107 146.752C81.2107 148.782 79.8667 150.112 77.7807 150.112Z" fill="black" fill-opacity="0.87"/>
<rect width="64" height="12" transform="translate(40 108)" fill="white"/>
<path d="M46.2031 109.469V118H45.0723V109.469H46.2031ZM49.3297 113.014V118H48.2457V111.66H49.2711L49.3297 113.014ZM49.0719 114.59L48.6207 114.572C48.6246 114.139 48.6891 113.738 48.8141 113.371C48.9391 113 49.1148 112.678 49.3414 112.404C49.568 112.131 49.8375 111.92 50.15 111.771C50.4664 111.619 50.816 111.543 51.1988 111.543C51.5113 111.543 51.7926 111.586 52.0426 111.672C52.2926 111.754 52.5055 111.887 52.6813 112.07C52.8609 112.254 52.9977 112.492 53.0914 112.785C53.1852 113.074 53.232 113.428 53.232 113.846V118H52.1422V113.834C52.1422 113.502 52.0934 113.236 51.9957 113.037C51.898 112.834 51.7555 112.688 51.568 112.598C51.3805 112.504 51.15 112.457 50.8766 112.457C50.607 112.457 50.3609 112.514 50.1383 112.627C49.9195 112.74 49.7301 112.896 49.5699 113.096C49.4137 113.295 49.2906 113.523 49.2008 113.781C49.1148 114.035 49.0719 114.305 49.0719 114.59ZM56.9563 117.021L58.6906 111.66H59.798L57.5188 118H56.7922L56.9563 117.021ZM55.509 111.66L57.2961 117.051L57.4191 118H56.6926L54.3957 111.66H55.509ZM60.6102 114.9V114.766C60.6102 114.309 60.6766 113.885 60.8094 113.494C60.9422 113.1 61.1336 112.758 61.3836 112.469C61.6336 112.176 61.9363 111.949 62.2918 111.789C62.6473 111.625 63.0457 111.543 63.4871 111.543C63.9324 111.543 64.3328 111.625 64.6883 111.789C65.0477 111.949 65.3523 112.176 65.6023 112.469C65.8563 112.758 66.0496 113.1 66.1824 113.494C66.3152 113.885 66.3816 114.309 66.3816 114.766V114.9C66.3816 115.357 66.3152 115.781 66.1824 116.172C66.0496 116.562 65.8563 116.904 65.6023 117.197C65.3523 117.486 65.0496 117.713 64.6941 117.877C64.3426 118.037 63.9441 118.117 63.4988 118.117C63.0535 118.117 62.6531 118.037 62.2977 117.877C61.9422 117.713 61.6375 117.486 61.3836 117.197C61.1336 116.904 60.9422 116.562 60.8094 116.172C60.6766 115.781 60.6102 115.357 60.6102 114.9ZM61.6941 114.766V114.9C61.6941 115.217 61.7313 115.516 61.8055 115.797C61.8797 116.074 61.991 116.32 62.1395 116.535C62.2918 116.75 62.4813 116.92 62.7078 117.045C62.9344 117.166 63.198 117.227 63.4988 117.227C63.7957 117.227 64.0555 117.166 64.2781 117.045C64.5047 116.92 64.6922 116.75 64.8406 116.535C64.9891 116.32 65.1004 116.074 65.1746 115.797C65.2527 115.516 65.2918 115.217 65.2918 114.9V114.766C65.2918 114.453 65.2527 114.158 65.1746 113.881C65.1004 113.6 64.9871 113.352 64.8348 113.137C64.6863 112.918 64.4988 112.746 64.2723 112.621C64.0496 112.496 63.7879 112.434 63.4871 112.434C63.1902 112.434 62.9285 112.496 62.702 112.621C62.4793 112.746 62.2918 112.918 62.1395 113.137C61.991 113.352 61.8797 113.6 61.8055 113.881C61.7313 114.158 61.6941 114.453 61.6941 114.766ZM69.0688 111.66V118H67.9789V111.66H69.0688ZM67.8969 109.979C67.8969 109.803 67.9496 109.654 68.0551 109.533C68.1645 109.412 68.3246 109.352 68.5355 109.352C68.7426 109.352 68.9008 109.412 69.0102 109.533C69.1234 109.654 69.1801 109.803 69.1801 109.979C69.1801 110.146 69.1234 110.291 69.0102 110.412C68.9008 110.529 68.7426 110.588 68.5355 110.588C68.3246 110.588 68.1645 110.529 68.0551 110.412C67.9496 110.291 67.8969 110.146 67.8969 109.979ZM73.4961 117.227C73.7539 117.227 73.9922 117.174 74.2109 117.068C74.4297 116.963 74.6094 116.818 74.75 116.635C74.8906 116.447 74.9707 116.234 74.9902 115.996H76.0215C76.002 116.371 75.875 116.721 75.6406 117.045C75.4102 117.365 75.1074 117.625 74.7324 117.824C74.3574 118.02 73.9453 118.117 73.4961 118.117C73.0195 118.117 72.6035 118.033 72.248 117.865C71.8965 117.697 71.6035 117.467 71.3691 117.174C71.1387 116.881 70.9648 116.545 70.8477 116.166C70.7344 115.783 70.6777 115.379 70.6777 114.953V114.707C70.6777 114.281 70.7344 113.879 70.8477 113.5C70.9648 113.117 71.1387 112.779 71.3691 112.486C71.6035 112.193 71.8965 111.963 72.248 111.795C72.6035 111.627 73.0195 111.543 73.4961 111.543C73.9922 111.543 74.4258 111.645 74.7969 111.848C75.168 112.047 75.459 112.32 75.6699 112.668C75.8848 113.012 76.002 113.402 76.0215 113.84H74.9902C74.9707 113.578 74.8965 113.342 74.7676 113.131C74.6426 112.92 74.4707 112.752 74.252 112.627C74.0371 112.498 73.7852 112.434 73.4961 112.434C73.1641 112.434 72.8848 112.5 72.6582 112.633C72.4355 112.762 72.2578 112.938 72.125 113.16C71.9961 113.379 71.9023 113.623 71.8438 113.893C71.7891 114.158 71.7617 114.43 71.7617 114.707V114.953C71.7617 115.23 71.7891 115.504 71.8438 115.773C71.8984 116.043 71.9902 116.287 72.1191 116.506C72.252 116.725 72.4297 116.9 72.6523 117.033C72.8789 117.162 73.1602 117.227 73.4961 117.227ZM80.0211 118.117C79.5797 118.117 79.1793 118.043 78.8199 117.895C78.4645 117.742 78.1578 117.529 77.9 117.256C77.6461 116.982 77.4508 116.658 77.3141 116.283C77.1773 115.908 77.109 115.498 77.109 115.053V114.807C77.109 114.291 77.1852 113.832 77.3375 113.43C77.4898 113.023 77.6969 112.68 77.9586 112.398C78.2203 112.117 78.5172 111.904 78.8492 111.76C79.1813 111.615 79.525 111.543 79.8805 111.543C80.3336 111.543 80.7242 111.621 81.0523 111.777C81.3844 111.934 81.6559 112.152 81.8668 112.434C82.0777 112.711 82.234 113.039 82.3355 113.418C82.4371 113.793 82.4879 114.203 82.4879 114.648V115.135H77.7535V114.25H81.4039V114.168C81.3883 113.887 81.3297 113.613 81.2281 113.348C81.1305 113.082 80.9742 112.863 80.7594 112.691C80.5445 112.52 80.2516 112.434 79.8805 112.434C79.6344 112.434 79.4078 112.486 79.2008 112.592C78.9938 112.693 78.816 112.846 78.6676 113.049C78.5191 113.252 78.4039 113.5 78.3219 113.793C78.2398 114.086 78.1988 114.424 78.1988 114.807V115.053C78.1988 115.354 78.2398 115.637 78.3219 115.902C78.4078 116.164 78.5309 116.395 78.691 116.594C78.8551 116.793 79.0523 116.949 79.2828 117.062C79.5172 117.176 79.7828 117.232 80.0797 117.232C80.4625 117.232 80.7867 117.154 81.0523 116.998C81.318 116.842 81.5504 116.633 81.7496 116.371L82.4059 116.893C82.2691 117.1 82.0953 117.297 81.8844 117.484C81.6734 117.672 81.4137 117.824 81.1051 117.941C80.8004 118.059 80.4391 118.117 80.0211 118.117ZM88.1141 113.014V118H87.0301V111.66H88.0555L88.1141 113.014ZM87.8563 114.59L87.4051 114.572C87.409 114.139 87.4734 113.738 87.5984 113.371C87.7234 113 87.8992 112.678 88.1258 112.404C88.3523 112.131 88.6219 111.92 88.9344 111.771C89.2508 111.619 89.6004 111.543 89.9832 111.543C90.2957 111.543 90.577 111.586 90.827 111.672C91.077 111.754 91.2898 111.887 91.4656 112.07C91.6453 112.254 91.782 112.492 91.8758 112.785C91.9695 113.074 92.0164 113.428 92.0164 113.846V118H90.9266V113.834C90.9266 113.502 90.8777 113.236 90.7801 113.037C90.6824 112.834 90.5398 112.688 90.3523 112.598C90.1648 112.504 89.9344 112.457 89.6609 112.457C89.3914 112.457 89.1453 112.514 88.9227 112.627C88.7039 112.74 88.5145 112.896 88.3543 113.096C88.198 113.295 88.075 113.523 87.9852 113.781C87.8992 114.035 87.8563 114.305 87.8563 114.59ZM93.5258 114.9V114.766C93.5258 114.309 93.5922 113.885 93.725 113.494C93.8578 113.1 94.0492 112.758 94.2992 112.469C94.5492 112.176 94.852 111.949 95.2074 111.789C95.5629 111.625 95.9613 111.543 96.4027 111.543C96.848 111.543 97.2484 111.625 97.6039 111.789C97.9633 111.949 98.268 112.176 98.518 112.469C98.7719 112.758 98.9652 113.1 99.098 113.494C99.2309 113.885 99.2973 114.309 99.2973 114.766V114.9C99.2973 115.357 99.2309 115.781 99.098 116.172C98.9652 116.562 98.7719 116.904 98.518 117.197C98.268 117.486 97.9652 117.713 97.6098 117.877C97.2582 118.037 96.8598 118.117 96.4145 118.117C95.9691 118.117 95.5687 118.037 95.2133 117.877C94.8578 117.713 94.5531 117.486 94.2992 117.197C94.0492 116.904 93.8578 116.562 93.725 116.172C93.5922 115.781 93.5258 115.357 93.5258 114.9ZM94.6098 114.766V114.9C94.6098 115.217 94.6469 115.516 94.7211 115.797C94.7953 116.074 94.9066 116.32 95.0551 116.535C95.2074 116.75 95.3969 116.92 95.6234 117.045C95.85 117.166 96.1137 117.227 96.4145 117.227C96.7113 117.227 96.9711 117.166 97.1937 117.045C97.4203 116.92 97.6078 116.75 97.7562 116.535C97.9047 116.32 98.016 116.074 98.0902 115.797C98.1684 115.516 98.2074 115.217 98.2074 114.9V114.766C98.2074 114.453 98.1684 114.158 98.0902 113.881C98.016 113.6 97.9027 113.352 97.7504 113.137C97.602 112.918 97.4145 112.746 97.1879 112.621C96.9652 112.496 96.7035 112.434 96.4027 112.434C96.1059 112.434 95.8441 112.496 95.6176 112.621C95.3949 112.746 95.2074 112.918 95.0551 113.137C94.9066 113.352 94.7953 113.6 94.7211 113.881C94.6469 114.158 94.6098 114.453 94.6098 114.766Z" fill="black" fill-opacity="0.6"/>
<rect x="33.5" y="125.5" width="189" height="39" rx="3.5" stroke="black" stroke-opacity="0.23"/>
<path d="M247.91 148.894C248.68 147.998 249.142 147.284 249.142 146.276C249.142 146.052 249.1 145.828 249.044 145.618H247.504V144.526H248.624C248.414 144.036 248.232 143.518 248.232 142.944C248.232 141.166 249.464 140.088 251.2 140.088C252.698 140.088 253.818 140.942 254.126 142.202L252.95 142.58C252.67 141.684 252.124 141.222 251.2 141.222C250.234 141.222 249.534 141.824 249.534 142.986C249.534 143.56 249.73 144.036 249.94 144.526H252.894V145.618H250.36C250.416 145.828 250.444 146.052 250.444 146.29C250.444 147.172 249.912 148.334 249.282 148.852H252.362C253.048 148.852 253.356 148.432 253.692 147.858L254.714 148.446C254.182 149.412 253.552 150 252.516 150H247.91V148.894ZM257.763 141.796C257.091 142.412 256.363 142.72 255.439 142.888V141.754C256.419 141.544 257.273 141.04 257.959 140.2H258.967V150H257.763V141.796ZM264.47 150.112C262.006 150.112 260.718 148.11 260.718 145.1C260.718 142.09 262.006 140.088 264.47 140.088C266.906 140.088 268.222 142.09 268.222 145.1C268.222 148.11 266.906 150.112 264.47 150.112ZM262.02 145.1C262.02 147.452 262.86 148.964 264.47 148.964C266.052 148.964 266.906 147.452 266.906 145.1C266.906 142.748 266.052 141.222 264.47 141.222C262.86 141.222 262.02 142.748 262.02 145.1ZM269.337 151.484L270.149 148.544H271.745L270.177 151.484H269.337ZM277.027 150.112C274.563 150.112 273.275 148.11 273.275 145.1C273.275 142.09 274.563 140.088 277.027 140.088C279.463 140.088 280.779 142.09 280.779 145.1C280.779 148.11 279.463 150.112 277.027 150.112ZM274.577 145.1C274.577 147.452 275.417 148.964 277.027 148.964C278.609 148.964 279.463 147.452 279.463 145.1C279.463 142.748 278.609 141.222 277.027 141.222C275.417 141.222 274.577 142.748 274.577 145.1ZM285.827 150.112C283.363 150.112 282.075 148.11 282.075 145.1C282.075 142.09 283.363 140.088 285.827 140.088C288.263 140.088 289.579 142.09 289.579 145.1C289.579 148.11 288.263 150.112 285.827 150.112ZM283.377 145.1C283.377 147.452 284.217 148.964 285.827 148.964C287.409 148.964 288.263 147.452 288.263 145.1C288.263 142.748 287.409 141.222 285.827 141.222C284.217 141.222 283.377 142.748 283.377 145.1ZM294.628 150.112C292.164 150.112 290.876 148.11 290.876 145.1C290.876 142.09 292.164 140.088 294.628 140.088C297.064 140.088 298.38 142.09 298.38 145.1C298.38 148.11 297.064 150.112 294.628 150.112ZM292.178 145.1C292.178 147.452 293.018 148.964 294.628 148.964C296.21 148.964 297.064 147.452 297.064 145.1C297.064 142.748 296.21 141.222 294.628 141.222C293.018 141.222 292.178 142.748 292.178 145.1Z" fill="black" fill-opacity="0.87"/>
<rect x="235.5" y="125.5" width="206" height="39" rx="3.5" stroke="#00283C"/>
<path d="M37.144 200.112C35.212 200.112 33.602 198.81 33.364 197.032L35.058 196.514C35.212 197.69 36.122 198.488 37.214 198.488C38.236 198.488 38.908 197.998 38.908 197.256C38.908 195.142 33.714 196.332 33.714 192.776C33.714 191.208 35.184 190.088 37.116 190.088C38.978 190.088 40.448 191.082 40.756 192.566L39.048 193.266C38.852 192.314 38.138 191.712 37.116 191.712C36.178 191.712 35.604 192.118 35.604 192.776C35.604 194.554 40.84 193.238 40.84 197.214C40.84 198.95 39.356 200.112 37.144 200.112ZM41.7475 196.472C41.7475 194.638 42.8955 192.832 45.2335 192.832C47.6135 192.832 48.7755 194.596 48.7755 196.234C48.7755 196.486 48.7615 196.794 48.7475 196.934H43.5115C43.6655 197.998 44.3515 198.628 45.3595 198.628C46.1855 198.628 46.7735 198.236 46.9555 197.55L48.6075 197.998C48.2155 199.328 46.9835 200.112 45.3315 200.112C42.9935 200.112 41.7475 198.306 41.7475 196.472ZM43.5535 195.646H46.8855C46.8015 194.806 46.2555 194.176 45.2335 194.176C44.3655 194.176 43.7495 194.694 43.5535 195.646ZM50.1099 200V190.088H51.8739V200H50.1099ZM53.2045 196.472C53.2045 194.638 54.3525 192.832 56.6905 192.832C59.0705 192.832 60.2325 194.596 60.2325 196.234C60.2325 196.486 60.2185 196.794 60.2045 196.934H54.9685C55.1225 197.998 55.8085 198.628 56.8165 198.628C57.6425 198.628 58.2305 198.236 58.4125 197.55L60.0645 197.998C59.6725 199.328 58.4405 200.112 56.7885 200.112C54.4505 200.112 53.2045 198.306 53.2045 196.472ZM55.0105 195.646H58.3425C58.2585 194.806 57.7125 194.176 56.6905 194.176C55.8225 194.176 55.2065 194.694 55.0105 195.646ZM64.7729 200.112C62.6589 200.112 61.1889 198.628 61.1889 196.472C61.1889 194.316 62.6589 192.832 64.7729 192.832C66.5789 192.832 67.8529 193.77 68.0909 195.268L66.3689 195.604C66.2429 194.862 65.6549 194.358 64.8289 194.358C63.7369 194.358 63.0229 195.184 63.0229 196.472C63.0229 197.76 63.7369 198.586 64.8289 198.586C65.6549 198.586 66.2009 198.138 66.3689 197.382L68.0909 197.732C67.8249 199.216 66.5509 200.112 64.7729 200.112ZM73.4775 199.93C73.1275 200.056 72.7495 200.112 72.3435 200.112C70.9155 200.112 69.8515 199.342 69.8515 197.69V194.428H68.6615V192.944H69.8515V190.872H71.6155V192.944H73.3935V194.428H71.6155V197.522C71.6155 198.194 71.9795 198.558 72.5255 198.558C72.7915 198.558 73.0995 198.516 73.3515 198.39L73.4775 199.93ZM82.1712 195.464C82.1712 194.666 81.6252 194.176 80.7712 194.176C80.0012 194.176 79.4552 194.652 79.3712 195.408L77.8032 195.128C78.0272 193.728 79.2732 192.832 80.7712 192.832C82.6192 192.832 83.8792 193.826 83.8792 195.702V200H82.1712V198.978C81.7792 199.664 80.9252 200.112 80.0572 200.112C78.6712 200.112 77.7052 199.216 77.7052 198.012C77.7052 196.626 78.7552 195.884 80.8552 195.66L82.1712 195.534V195.464ZM79.4132 197.956C79.4132 198.446 79.8052 198.81 80.4492 198.81C81.5412 198.81 82.1712 197.984 82.1712 196.948V196.794L80.8272 196.948C79.8892 197.06 79.4132 197.452 79.4132 197.956ZM88.9653 202.548V192.944H90.7293V193.756C91.1213 193.21 91.8913 192.832 92.8293 192.832C94.8593 192.832 96.1053 194.316 96.1053 196.472C96.1053 198.628 94.7753 200.112 92.7033 200.112C91.8913 200.112 91.1353 199.804 90.7293 199.3V202.548H88.9653ZM90.6173 196.472C90.6173 197.746 91.3593 198.586 92.4933 198.586C93.6133 198.586 94.3553 197.746 94.3553 196.472C94.3553 195.198 93.6133 194.358 92.4933 194.358C91.3593 194.358 90.6173 195.198 90.6173 196.472ZM101.531 195.464C101.531 194.666 100.985 194.176 100.131 194.176C99.3605 194.176 98.8145 194.652 98.7305 195.408L97.1625 195.128C97.3865 193.728 98.6325 192.832 100.131 192.832C101.979 192.832 103.239 193.826 103.239 195.702V200H101.531V198.978C101.139 199.664 100.285 200.112 99.4165 200.112C98.0305 200.112 97.0645 199.216 97.0645 198.012C97.0645 196.626 98.1145 195.884 100.215 195.66L101.531 195.534V195.464ZM98.7725 197.956C98.7725 198.446 99.1645 198.81 99.8085 198.81C100.901 198.81 101.531 197.984 101.531 196.948V196.794L100.187 196.948C99.2485 197.06 98.7725 197.452 98.7725 197.956ZM109.281 192.944H111.087L107.363 202.548H105.571L106.663 199.72L103.919 192.944H105.837L107.531 197.48L109.281 192.944ZM112.057 200V192.944H113.821V194.022C114.213 193.322 114.871 192.832 115.851 192.832C116.971 192.832 117.727 193.308 118.049 194.162C118.427 193.448 119.267 192.832 120.387 192.832C121.913 192.832 122.907 193.826 122.907 195.212V200H121.143V195.702C121.143 194.862 120.681 194.33 119.855 194.33C118.903 194.33 118.357 195.156 118.357 196.402V200H116.593V195.702C116.593 194.862 116.145 194.33 115.333 194.33C114.367 194.33 113.821 195.17 113.821 196.416V200H112.057ZM124.244 196.472C124.244 194.638 125.392 192.832 127.73 192.832C130.11 192.832 131.272 194.596 131.272 196.234C131.272 196.486 131.258 196.794 131.244 196.934H126.008C126.162 197.998 126.848 198.628 127.856 198.628C128.682 198.628 129.27 198.236 129.452 197.55L131.104 197.998C130.712 199.328 129.48 200.112 127.828 200.112C125.49 200.112 124.244 198.306 124.244 196.472ZM126.05 195.646H129.382C129.298 194.806 128.752 194.176 127.73 194.176C126.862 194.176 126.246 194.694 126.05 195.646ZM132.606 200V192.944H134.37V194.008C134.818 193.322 135.616 192.832 136.61 192.832C138.15 192.832 139.186 193.84 139.186 195.38V200H137.422V195.8C137.422 194.974 136.904 194.4 136.078 194.4C135 194.4 134.37 195.324 134.37 196.906V200H132.606ZM144.845 199.93C144.495 200.056 144.117 200.112 143.711 200.112C142.283 200.112 141.219 199.342 141.219 197.69V194.428H140.029V192.944H141.219V190.872H142.983V192.944H144.761V194.428H142.983V197.522C142.983 198.194 143.347 198.558 143.893 198.558C144.159 198.558 144.467 198.516 144.719 198.39L144.845 199.93ZM153.608 199.93C153.258 200.056 152.88 200.112 152.474 200.112C151.046 200.112 149.982 199.342 149.982 197.69V194.428H148.792V192.944H149.982V190.872H151.746V192.944H153.524V194.428H151.746V197.522C151.746 198.194 152.11 198.558 152.656 198.558C152.922 198.558 153.23 198.516 153.482 198.39L153.608 199.93ZM154.308 196.472C154.308 194.638 155.456 192.832 157.794 192.832C160.174 192.832 161.336 194.596 161.336 196.234C161.336 196.486 161.322 196.794 161.308 196.934H156.072C156.226 197.998 156.912 198.628 157.92 198.628C158.746 198.628 159.334 198.236 159.516 197.55L161.168 197.998C160.776 199.328 159.544 200.112 157.892 200.112C155.554 200.112 154.308 198.306 154.308 196.472ZM156.114 195.646H159.446C159.362 194.806 158.816 194.176 157.794 194.176C156.926 194.176 156.31 194.694 156.114 195.646ZM167.22 194.652C166.968 194.54 166.632 194.484 166.324 194.484C165.33 194.484 164.434 195.31 164.434 197.41V200H162.67V192.944H164.434V194.232C164.784 193.434 165.708 192.832 166.562 192.832C166.814 192.832 167.122 192.874 167.332 192.944L167.22 194.652ZM168.358 200V192.944H170.122V194.022C170.514 193.322 171.172 192.832 172.152 192.832C173.272 192.832 174.028 193.308 174.35 194.162C174.728 193.448 175.568 192.832 176.688 192.832C178.214 192.832 179.208 193.826 179.208 195.212V200H177.444V195.702C177.444 194.862 176.982 194.33 176.156 194.33C175.204 194.33 174.658 195.156 174.658 196.402V200H172.894V195.702C172.894 194.862 172.446 194.33 171.634 194.33C170.668 194.33 170.122 195.17 170.122 196.416V200H168.358Z" fill="#222222"/>
<rect x="34" y="220" width="96" height="42" rx="21" fill="white"/>
<path d="M61.004 246.112C58.988 246.112 57.532 244.964 57.35 243.228L59.086 242.948C59.226 243.858 59.982 244.46 61.018 244.46C62.096 244.46 62.824 243.802 62.824 242.836C62.824 241.828 62.138 241.212 61.06 241.212C60.724 241.212 60.276 241.31 59.954 241.534L59.212 240.288L61.9 237.838H57.63V236.2H64.126V237.74L61.62 239.98C63.454 239.91 64.728 241.03 64.728 242.878C64.728 244.824 63.244 246.112 61.004 246.112ZM69.6965 246.112C67.2045 246.112 65.7205 244.124 65.7205 241.1C65.7205 238.076 67.2045 236.088 69.6965 236.088C72.1885 236.088 73.6725 238.076 73.6725 241.1C73.6725 244.124 72.1885 246.112 69.6965 246.112ZM67.6385 241.1C67.6385 243.2 68.3525 244.46 69.6965 244.46C71.0405 244.46 71.7685 243.2 71.7685 241.1C71.7685 239 71.0405 237.726 69.6965 237.726C68.3525 237.726 67.6385 239 67.6385 241.1ZM81.3712 246.112C79.2572 246.112 78.0112 244.628 78.0112 242.472C78.0112 240.316 79.2572 238.832 81.3432 238.832C82.2252 238.832 82.9812 239.196 83.3872 239.728V236.088H85.1512V246H83.3872V245.188C83.0372 245.748 82.2532 246.112 81.3712 246.112ZM79.7612 242.472C79.7612 243.746 80.5032 244.586 81.6232 244.586C82.7572 244.586 83.4992 243.746 83.4992 242.472C83.4992 241.198 82.7572 240.358 81.6232 240.358C80.5032 240.358 79.7612 241.198 79.7612 242.472ZM90.9817 241.464C90.9817 240.666 90.4357 240.176 89.5817 240.176C88.8117 240.176 88.2657 240.652 88.1817 241.408L86.6137 241.128C86.8377 239.728 88.0837 238.832 89.5817 238.832C91.4297 238.832 92.6897 239.826 92.6897 241.702V246H90.9817V244.978C90.5897 245.664 89.7357 246.112 88.8677 246.112C87.4817 246.112 86.5157 245.216 86.5157 244.012C86.5157 242.626 87.5657 241.884 89.6657 241.66L90.9817 241.534V241.464ZM88.2237 243.956C88.2237 244.446 88.6157 244.81 89.2597 244.81C90.3517 244.81 90.9817 243.984 90.9817 242.948V242.794L89.6377 242.948C88.6997 243.06 88.2237 243.452 88.2237 243.956ZM98.7318 238.944H100.538L96.8138 248.548H95.0218L96.1138 245.72L93.3698 238.944H95.2878L96.9818 243.48L98.7318 238.944ZM103.795 246.112C102.087 246.112 101.065 245.062 100.715 244.026L102.157 243.438C102.367 244.152 102.913 244.74 103.795 244.74C104.453 244.74 104.887 244.39 104.887 243.942C104.887 242.612 101.037 243.48 101.037 240.806C101.037 239.7 102.003 238.832 103.543 238.832C104.915 238.832 106.077 239.532 106.385 240.554L104.957 241.156C104.761 240.484 104.145 240.134 103.571 240.134C103.011 240.134 102.633 240.372 102.633 240.778C102.633 242.024 106.511 241.03 106.511 243.914C106.511 245.132 105.419 246.112 103.795 246.112Z" fill="#818181"/>
<rect x="34" y="220" width="96" height="42" rx="21" stroke="#979797" stroke-width="2"/>
<rect x="138" y="220" width="97" height="42" rx="21" fill="#FFC800" fill-opacity="0.12"/>
<path d="M165.536 239.392C167.538 239.392 168.98 240.792 168.98 242.752C168.98 244.712 167.426 246.112 165.256 246.112C163.044 246.112 161.49 244.264 161.49 241.548C161.49 237.88 163.66 236.088 166.124 236.088C167.174 236.088 168.21 236.424 168.994 237.082L168.126 238.468C167.622 238.034 166.922 237.726 166.166 237.726C164.542 237.726 163.394 238.902 163.282 240.554C163.73 239.826 164.57 239.392 165.536 239.392ZM163.492 242.654C163.492 243.704 164.248 244.46 165.312 244.46C166.362 244.46 167.104 243.704 167.104 242.654C167.118 241.618 166.362 240.862 165.312 240.862C164.248 240.862 163.492 241.618 163.492 242.654ZM174.093 246.112C171.601 246.112 170.117 244.124 170.117 241.1C170.117 238.076 171.601 236.088 174.093 236.088C176.585 236.088 178.069 238.076 178.069 241.1C178.069 244.124 176.585 246.112 174.093 246.112ZM172.035 241.1C172.035 243.2 172.749 244.46 174.093 244.46C175.437 244.46 176.165 243.2 176.165 241.1C176.165 239 175.437 237.726 174.093 237.726C172.749 237.726 172.035 239 172.035 241.1ZM185.768 246.112C183.654 246.112 182.408 244.628 182.408 242.472C182.408 240.316 183.654 238.832 185.74 238.832C186.622 238.832 187.378 239.196 187.784 239.728V236.088H189.548V246H187.784V245.188C187.434 245.748 186.65 246.112 185.768 246.112ZM184.158 242.472C184.158 243.746 184.9 244.586 186.02 244.586C187.154 244.586 187.896 243.746 187.896 242.472C187.896 241.198 187.154 240.358 186.02 240.358C184.9 240.358 184.158 241.198 184.158 242.472ZM195.378 241.464C195.378 240.666 194.832 240.176 193.978 240.176C193.208 240.176 192.662 240.652 192.578 241.408L191.01 241.128C191.234 239.728 192.48 238.832 193.978 238.832C195.826 238.832 197.086 239.826 197.086 241.702V246H195.378V244.978C194.986 245.664 194.132 246.112 193.264 246.112C191.878 246.112 190.912 245.216 190.912 244.012C190.912 242.626 191.962 241.884 194.062 241.66L195.378 241.534V241.464ZM192.62 243.956C192.62 244.446 193.012 244.81 193.656 244.81C194.748 244.81 195.378 243.984 195.378 242.948V242.794L194.034 242.948C193.096 243.06 192.62 243.452 192.62 243.956ZM203.128 238.944H204.934L201.21 248.548H199.418L200.51 245.72L197.766 238.944H199.684L201.378 243.48L203.128 238.944ZM208.191 246.112C206.483 246.112 205.461 245.062 205.111 244.026L206.553 243.438C206.763 244.152 207.309 244.74 208.191 244.74C208.849 244.74 209.283 244.39 209.283 243.942C209.283 242.612 205.433 243.48 205.433 240.806C205.433 239.7 206.399 238.832 207.939 238.832C209.311 238.832 210.473 239.532 210.781 240.554L209.353 241.156C209.157 240.484 208.541 240.134 207.967 240.134C207.407 240.134 207.029 240.372 207.029 240.778C207.029 242.024 210.907 241.03 210.907 243.914C210.907 245.132 209.815 246.112 208.191 246.112Z" fill="#00283C"/>
<rect x="138" y="220" width="97" height="42" rx="21" stroke="#00283C" stroke-width="2"/>
<rect x="243" y="220" width="97" height="42" rx="21" fill="white"/>
<path d="M270.144 242.808C268.142 242.808 266.7 241.408 266.7 239.448C266.7 237.488 268.254 236.088 270.424 236.088C272.636 236.088 274.19 237.936 274.19 240.652C274.19 244.32 272.02 246.112 269.556 246.112C268.506 246.112 267.47 245.776 266.686 245.118L267.554 243.732C268.058 244.166 268.758 244.474 269.514 244.474C271.138 244.474 272.286 243.298 272.398 241.646C271.95 242.374 271.11 242.808 270.144 242.808ZM268.576 239.546C268.562 240.582 269.318 241.338 270.368 241.338C271.432 241.338 272.188 240.582 272.188 239.546C272.188 238.496 271.432 237.74 270.368 237.74C269.318 237.74 268.576 238.496 268.576 239.546ZM279.148 246.112C276.656 246.112 275.172 244.124 275.172 241.1C275.172 238.076 276.656 236.088 279.148 236.088C281.64 236.088 283.124 238.076 283.124 241.1C283.124 244.124 281.64 246.112 279.148 246.112ZM277.09 241.1C277.09 243.2 277.804 244.46 279.148 244.46C280.492 244.46 281.22 243.2 281.22 241.1C281.22 239 280.492 237.726 279.148 237.726C277.804 237.726 277.09 239 277.09 241.1ZM290.822 246.112C288.708 246.112 287.462 244.628 287.462 242.472C287.462 240.316 288.708 238.832 290.794 238.832C291.676 238.832 292.432 239.196 292.838 239.728V236.088H294.602V246H292.838V245.188C292.488 245.748 291.704 246.112 290.822 246.112ZM289.212 242.472C289.212 243.746 289.954 244.586 291.074 244.586C292.208 244.586 292.95 243.746 292.95 242.472C292.95 241.198 292.208 240.358 291.074 240.358C289.954 240.358 289.212 241.198 289.212 242.472ZM300.433 241.464C300.433 240.666 299.887 240.176 299.033 240.176C298.263 240.176 297.717 240.652 297.633 241.408L296.065 241.128C296.289 239.728 297.535 238.832 299.033 238.832C300.881 238.832 302.141 239.826 302.141 241.702V246H300.433V244.978C300.041 245.664 299.187 246.112 298.319 246.112C296.933 246.112 295.967 245.216 295.967 244.012C295.967 242.626 297.017 241.884 299.117 241.66L300.433 241.534V241.464ZM297.675 243.956C297.675 244.446 298.067 244.81 298.711 244.81C299.803 244.81 300.433 243.984 300.433 242.948V242.794L299.089 242.948C298.151 243.06 297.675 243.452 297.675 243.956ZM308.183 238.944H309.989L306.265 248.548H304.473L305.565 245.72L302.821 238.944H304.739L306.433 243.48L308.183 238.944ZM313.246 246.112C311.538 246.112 310.516 245.062 310.166 244.026L311.608 243.438C311.818 244.152 312.364 244.74 313.246 244.74C313.904 244.74 314.338 244.39 314.338 243.942C314.338 242.612 310.488 243.48 310.488 240.806C310.488 239.7 311.454 238.832 312.994 238.832C314.366 238.832 315.528 239.532 315.836 240.554L314.408 241.156C314.212 240.484 313.596 240.134 313.022 240.134C312.462 240.134 312.084 240.372 312.084 240.778C312.084 242.024 315.962 241.03 315.962 243.914C315.962 245.132 314.87 246.112 313.246 246.112Z" fill="#818181"/>
<rect x="243" y="220" width="97" height="42" rx="21" stroke="#979797" stroke-width="2"/>
<rect x="33" y="287" width="413" height="200" rx="8" fill="#FAFAFA"/>
<path d="M54.056 333V321.8H56.232V333H54.056ZM58.2573 333V324.936H60.2733V326.152C60.7853 325.368 61.6973 324.808 62.8333 324.808C64.5933 324.808 65.7773 325.96 65.7773 327.72V333H63.7613V328.2C63.7613 327.256 63.1693 326.6 62.2253 326.6C60.9933 326.6 60.2733 327.656 60.2733 329.464V333H58.2573ZM69.4783 333L66.5343 324.936H68.5663L70.4062 330.664L72.2463 324.936H74.2943L71.3503 333H69.4783ZM78.8301 333.128C76.3821 333.128 74.6221 331.368 74.6221 328.968C74.6221 326.568 76.3821 324.808 78.8301 324.808C81.2781 324.808 83.0381 326.568 83.0381 328.968C83.0381 331.368 81.2781 333.128 78.8301 333.128ZM76.6541 328.968C76.6541 330.408 77.5181 331.384 78.8301 331.384C80.1261 331.384 81.0061 330.408 81.0061 328.968C81.0061 327.528 80.1261 326.552 78.8301 326.552C77.5181 326.552 76.6541 327.528 76.6541 328.968ZM84.5541 333V324.936H86.5701V333H84.5541ZM84.3141 322.456C84.3141 321.768 84.8421 321.224 85.5621 321.224C86.2981 321.224 86.8421 321.768 86.8421 322.456C86.8421 323.16 86.2981 323.704 85.5621 323.704C84.8421 323.704 84.3141 323.16 84.3141 322.456ZM92.1869 333.128C89.7709 333.128 88.0909 331.432 88.0909 328.968C88.0909 326.504 89.7709 324.808 92.1869 324.808C94.2509 324.808 95.7069 325.88 95.9789 327.592L94.0109 327.976C93.8669 327.128 93.1949 326.552 92.2509 326.552C91.0029 326.552 90.1869 327.496 90.1869 328.968C90.1869 330.44 91.0029 331.384 92.2509 331.384C93.1949 331.384 93.8189 330.872 94.0109 330.008L95.9789 330.408C95.6749 332.104 94.2189 333.128 92.1869 333.128ZM97.0596 328.968C97.0596 326.872 98.3716 324.808 101.044 324.808C103.764 324.808 105.092 326.824 105.092 328.696C105.092 328.984 105.076 329.336 105.06 329.496H99.0756C99.2516 330.712 100.036 331.432 101.188 331.432C102.132 331.432 102.804 330.984 103.012 330.2L104.9 330.712C104.452 332.232 103.044 333.128 101.156 333.128C98.4836 333.128 97.0596 331.064 97.0596 328.968ZM99.1236 328.024H102.932C102.836 327.064 102.212 326.344 101.044 326.344C100.052 326.344 99.3476 326.936 99.1236 328.024ZM115.164 327.816C115.164 326.904 114.54 326.344 113.564 326.344C112.684 326.344 112.06 326.888 111.964 327.752L110.172 327.432C110.428 325.832 111.852 324.808 113.564 324.808C115.676 324.808 117.116 325.944 117.116 328.088V333H115.164V331.832C114.716 332.616 113.74 333.128 112.748 333.128C111.164 333.128 110.06 332.104 110.06 330.728C110.06 329.144 111.26 328.296 113.66 328.04L115.164 327.896V327.816ZM112.012 330.664C112.012 331.224 112.46 331.64 113.196 331.64C114.444 331.64 115.164 330.696 115.164 329.512V329.336L113.628 329.512C112.556 329.64 112.012 330.088 112.012 330.664ZM119.085 333V324.936H121.101V326.168C121.549 325.368 122.301 324.808 123.421 324.808C124.701 324.808 125.565 325.352 125.933 326.328C126.365 325.512 127.325 324.808 128.605 324.808C130.349 324.808 131.485 325.944 131.485 327.528V333H129.469V328.088C129.469 327.128 128.941 326.52 127.997 326.52C126.909 326.52 126.285 327.464 126.285 328.888V333H124.269V328.088C124.269 327.128 123.757 326.52 122.829 326.52C121.725 326.52 121.101 327.48 121.101 328.904V333H119.085ZM137.221 333.128C134.773 333.128 133.013 331.368 133.013 328.968C133.013 326.568 134.773 324.808 137.221 324.808C139.669 324.808 141.429 326.568 141.429 328.968C141.429 331.368 139.669 333.128 137.221 333.128ZM135.045 328.968C135.045 330.408 135.909 331.384 137.221 331.384C138.517 331.384 139.397 330.408 139.397 328.968C139.397 327.528 138.517 326.552 137.221 326.552C135.909 326.552 135.045 327.528 135.045 328.968ZM150.465 324.936V333H148.449V331.784C147.937 332.568 147.025 333.128 145.889 333.128C144.129 333.128 142.945 331.976 142.945 330.216V324.936H144.961V329.736C144.961 330.68 145.553 331.336 146.497 331.336C147.729 331.336 148.449 330.28 148.449 328.472V324.936H150.465ZM152.414 333V324.936H154.43V326.152C154.942 325.368 155.854 324.808 156.99 324.808C158.75 324.808 159.934 325.96 159.934 327.72V333H157.918V328.2C157.918 327.256 157.326 326.6 156.382 326.6C155.15 326.6 154.43 327.656 154.43 329.464V333H152.414ZM166.401 332.92C166.001 333.064 165.569 333.128 165.105 333.128C163.473 333.128 162.257 332.248 162.257 330.36V326.632H160.897V324.936H162.257V322.568H164.273V324.936H166.305V326.632H164.273V330.168C164.273 330.936 164.689 331.352 165.313 331.352C165.617 331.352 165.969 331.304 166.257 331.16L166.401 332.92Z" fill="black"/>
<path d="M338.807 331.24C339.623 330.488 340.103 329.608 340.103 328.536C340.103 328.424 340.087 328.328 340.071 328.216H338.247V326.52H339.431C339.239 326.056 339.079 325.576 339.079 325.048C339.079 322.968 340.535 321.672 342.759 321.672C344.695 321.672 346.119 322.712 346.391 324.312L344.391 324.872C344.199 324.024 343.639 323.544 342.759 323.544C341.863 323.544 341.223 324.136 341.223 325.144C341.223 325.672 341.383 326.104 341.591 326.52H345.063V328.216H342.263C342.279 328.312 342.279 328.424 342.279 328.536C342.279 329.464 341.783 330.568 341.159 331.112H343.895C344.519 331.112 344.999 330.648 345.335 329.992L347.111 330.984C346.439 332.296 345.591 333 344.375 333H338.807V331.24ZM350.351 324.2C349.583 324.808 348.767 325.192 347.775 325.384V323.448C348.815 323.208 349.887 322.6 350.703 321.8H352.367V333H350.351V324.2ZM358.526 333.128C355.678 333.128 353.982 330.856 353.982 327.4C353.982 323.944 355.678 321.672 358.526 321.672C361.374 321.672 363.07 323.944 363.07 327.4C363.07 330.856 361.374 333.128 358.526 333.128ZM356.174 327.4C356.174 329.8 356.99 331.24 358.526 331.24C360.062 331.24 360.894 329.8 360.894 327.4C360.894 325 360.062 323.544 358.526 323.544C356.99 323.544 356.174 325 356.174 327.4ZM364.025 335L365.081 330.888H367.481L365.353 335H364.025ZM373.542 333.128C370.694 333.128 368.998 330.856 368.998 327.4C368.998 323.944 370.694 321.672 373.542 321.672C376.39 321.672 378.086 323.944 378.086 327.4C378.086 330.856 376.39 333.128 373.542 333.128ZM371.19 327.4C371.19 329.8 372.006 331.24 373.542 331.24C375.078 331.24 375.91 329.8 375.91 327.4C375.91 325 375.078 323.544 373.542 323.544C372.006 323.544 371.19 325 371.19 327.4ZM383.76 333.128C380.912 333.128 379.216 330.856 379.216 327.4C379.216 323.944 380.912 321.672 383.76 321.672C386.608 321.672 388.304 323.944 388.304 327.4C388.304 330.856 386.608 333.128 383.76 333.128ZM381.408 327.4C381.408 329.8 382.224 331.24 383.76 331.24C385.296 331.24 386.128 329.8 386.128 327.4C386.128 325 385.296 323.544 383.76 323.544C382.224 323.544 381.408 325 381.408 327.4ZM393.979 333.128C391.131 333.128 389.435 330.856 389.435 327.4C389.435 323.944 391.131 321.672 393.979 321.672C396.827 321.672 398.523 323.944 398.523 327.4C398.523 330.856 396.827 333.128 393.979 333.128ZM391.627 327.4C391.627 329.8 392.443 331.24 393.979 331.24C395.515 331.24 396.347 329.8 396.347 327.4C396.347 325 395.515 323.544 393.979 323.544C392.443 323.544 391.627 325 391.627 327.4ZM401.318 333.128C400.614 333.128 400.07 332.6 400.07 331.896C400.07 331.192 400.614 330.664 401.318 330.664C402.038 330.664 402.566 331.192 402.566 331.896C402.566 332.6 402.038 333.128 401.318 333.128ZM408.667 333.128C405.819 333.128 404.123 330.856 404.123 327.4C404.123 323.944 405.819 321.672 408.667 321.672C411.515 321.672 413.211 323.944 413.211 327.4C413.211 330.856 411.515 333.128 408.667 333.128ZM406.315 327.4C406.315 329.8 407.131 331.24 408.667 331.24C410.203 331.24 411.035 329.8 411.035 327.4C411.035 325 410.203 323.544 408.667 323.544C407.131 323.544 406.315 325 406.315 327.4ZM418.885 333.128C416.037 333.128 414.341 330.856 414.341 327.4C414.341 323.944 416.037 321.672 418.885 321.672C421.733 321.672 423.429 323.944 423.429 327.4C423.429 330.856 421.733 333.128 418.885 333.128ZM416.533 327.4C416.533 329.8 417.349 331.24 418.885 331.24C420.421 331.24 421.253 329.8 421.253 327.4C421.253 325 420.421 323.544 418.885 323.544C417.349 323.544 416.533 325 416.533 327.4Z" fill="black"/>
<path d="M58.248 363.72L56.248 368.856H60.232L58.248 363.72ZM53.144 373L57.576 361.8H58.904L63.352 373H61.832L60.728 370.152H55.752L54.648 373H53.144ZM67.9499 373.128C65.4379 373.128 64.0619 371.336 64.0619 368.968C64.0619 366.6 65.4379 364.808 67.9339 364.808C69.0059 364.808 70.0619 365.336 70.5739 366.088V361.672H71.9339V373H70.5739V371.832C70.2059 372.568 69.1339 373.128 67.9499 373.128ZM65.4539 368.968C65.4539 370.744 66.4939 371.912 68.0779 371.912C69.6619 371.912 70.7019 370.744 70.7019 368.968C70.7019 367.192 69.6619 366.024 68.0779 366.024C66.4939 366.024 65.4539 367.192 65.4539 368.968ZM76.1833 373L73.2393 364.936H74.6313L76.8713 371.416L79.1273 364.936H80.5353L77.5753 373H76.1833ZM86.58 367.752C86.58 366.648 85.796 365.944 84.612 365.944C83.508 365.944 82.724 366.6 82.612 367.688L81.348 367.448C81.588 365.848 82.916 364.808 84.612 364.808C86.564 364.808 87.924 365.96 87.924 367.832V373H86.58V371.624C86.116 372.552 85.06 373.128 83.892 373.128C82.276 373.128 81.172 372.136 81.172 370.744C81.172 369.192 82.436 368.344 85.012 368.088L86.58 367.912V367.752ZM82.532 370.728C82.532 371.48 83.172 372.008 84.1 372.008C85.668 372.008 86.58 370.968 86.58 369.352V368.968L85.012 369.144C83.38 369.32 82.532 369.88 82.532 370.728ZM90.1353 373V364.936H91.4953V366.456C92.0553 365.496 93.0312 364.808 94.2633 364.808C95.9433 364.808 97.1433 365.944 97.1433 367.656V373H95.7833V367.912C95.7833 366.824 95.0953 366.04 93.9593 366.04C92.4553 366.04 91.4953 367.336 91.4953 369.464V373H90.1353ZM102.89 373.128C100.49 373.128 98.89 371.464 98.89 368.968C98.89 366.472 100.49 364.808 102.89 364.808C104.762 364.808 106.138 365.832 106.426 367.432L105.082 367.704C104.906 366.728 104.058 366.024 102.922 366.024C101.338 366.024 100.314 367.192 100.314 368.968C100.314 370.744 101.338 371.912 102.922 371.912C104.058 371.912 104.89 371.288 105.114 370.216L106.442 370.488C106.09 372.152 104.746 373.128 102.89 373.128ZM107.671 368.968C107.671 366.68 109.143 364.808 111.575 364.808C113.959 364.808 115.431 366.52 115.431 368.6C115.431 368.792 115.415 369.08 115.399 369.224H109.031C109.127 370.856 110.151 371.928 111.607 371.928C112.839 371.928 113.687 371.352 113.927 370.344L115.207 370.648C114.807 372.216 113.463 373.128 111.607 373.128C109.191 373.128 107.671 371.256 107.671 368.968ZM109.111 368.088H113.991C113.863 366.856 112.999 365.944 111.575 365.944C110.311 365.944 109.383 366.744 109.111 368.088ZM125.762 366.264C125.458 366.136 125.074 366.072 124.722 366.072C123.442 366.072 122.402 367.304 122.402 369.928V373H121.042V364.936H122.402V366.568C122.866 365.544 123.922 364.808 124.914 364.808C125.25 364.808 125.57 364.856 125.842 364.952L125.762 366.264ZM131.861 367.752C131.861 366.648 131.077 365.944 129.893 365.944C128.789 365.944 128.005 366.6 127.893 367.688L126.629 367.448C126.869 365.848 128.197 364.808 129.893 364.808C131.845 364.808 133.205 365.96 133.205 367.832V373H131.861V371.624C131.397 372.552 130.341 373.128 129.173 373.128C127.557 373.128 126.453 372.136 126.453 370.744C126.453 369.192 127.717 368.344 130.293 368.088L131.861 367.912V367.752ZM127.813 370.728C127.813 371.48 128.453 372.008 129.381 372.008C130.949 372.008 131.861 370.968 131.861 369.352V368.968L130.293 369.144C128.661 369.32 127.813 369.88 127.813 370.728ZM139.658 372.936C139.258 373.08 138.826 373.128 138.394 373.128C137.018 373.128 136.01 372.36 136.01 370.584V366.136H134.506V364.936H136.01V362.488H137.37V364.936H139.53V366.136H137.37V370.632C137.37 371.48 137.85 371.896 138.554 371.896C138.874 371.896 139.242 371.848 139.562 371.688L139.658 372.936ZM140.578 368.968C140.578 366.68 142.049 364.808 144.482 364.808C146.866 364.808 148.338 366.52 148.338 368.6C148.338 368.792 148.322 369.08 148.306 369.224H141.938C142.034 370.856 143.058 371.928 144.514 371.928C145.746 371.928 146.594 371.352 146.834 370.344L148.114 370.648C147.714 372.216 146.37 373.128 144.514 373.128C142.098 373.128 140.578 371.256 140.578 368.968ZM142.018 368.088H146.898C146.77 366.856 145.906 365.944 144.482 365.944C143.218 365.944 142.289 366.744 142.018 368.088ZM155.916 375.752C154.284 373.656 153.388 370.936 153.388 368.248C153.388 365.56 154.284 362.84 155.916 360.76L156.86 361.464C155.42 363.592 154.7 365.864 154.7 368.248C154.7 370.648 155.42 372.888 156.86 375.032L155.916 375.752ZM161.811 369.304C159.507 369.304 157.859 367.704 157.859 365.496C157.859 363.256 159.555 361.672 161.923 361.672C164.419 361.672 166.083 363.688 166.083 366.792C166.083 370.904 163.907 373.128 160.899 373.128C159.779 373.128 158.691 372.776 157.843 372.104L158.579 370.968C159.251 371.544 160.067 371.832 160.915 371.832C163.075 371.832 164.675 370.056 164.723 367.624C164.211 368.648 163.059 369.304 161.811 369.304ZM159.331 365.544C159.331 367.016 160.403 368.072 161.907 368.072C163.411 368.072 164.483 367.016 164.483 365.544C164.483 364.056 163.411 362.984 161.907 362.984C160.403 362.984 159.347 364.056 159.331 365.544ZM171.678 373.128C168.862 373.128 167.39 370.84 167.39 367.4C167.39 363.96 168.862 361.672 171.678 361.672C174.462 361.672 175.966 363.96 175.966 367.4C175.966 370.84 174.462 373.128 171.678 373.128ZM168.878 367.4C168.878 370.088 169.838 371.816 171.678 371.816C173.486 371.816 174.462 370.088 174.462 367.4C174.462 364.712 173.486 362.968 171.678 362.968C169.838 362.968 168.878 364.712 168.878 367.4ZM178.769 373L186.257 361.8H187.473L179.985 373H178.769ZM177.137 364.488C177.137 362.888 178.209 361.672 179.761 361.672C181.297 361.672 182.369 362.888 182.369 364.488C182.369 366.088 181.297 367.304 179.761 367.304C178.209 367.304 177.137 366.088 177.137 364.488ZM178.289 364.488C178.289 365.576 178.865 366.28 179.761 366.28C180.641 366.28 181.201 365.576 181.201 364.488C181.201 363.4 180.641 362.696 179.761 362.696C178.865 362.696 178.289 363.4 178.289 364.488ZM183.905 370.312C183.905 368.712 184.977 367.496 186.529 367.496C188.065 367.496 189.137 368.712 189.137 370.312C189.137 371.912 188.065 373.128 186.529 373.128C184.977 373.128 183.905 371.912 183.905 370.312ZM185.057 370.312C185.057 371.4 185.633 372.104 186.529 372.104C187.409 372.104 187.969 371.4 187.969 370.312C187.969 369.224 187.409 368.52 186.529 368.52C185.633 368.52 185.057 369.224 185.057 370.312ZM189.992 375.032C191.432 372.888 192.152 370.648 192.152 368.248C192.152 365.864 191.432 363.592 189.992 361.464L190.936 360.76C192.568 362.84 193.464 365.56 193.464 368.248C193.464 370.936 192.568 373.656 190.936 375.752L189.992 375.032Z" fill="#3C3C3C"/>
<path d="M54.168 405V393.8H55.624V398.872L60.52 393.8H62.456L58.136 398.248L62.92 405H61.16L57.112 399.272L55.624 400.808V405H54.168ZM68.324 398.264C68.0253 398.136 67.6787 398.072 67.284 398.072C66.6013 398.072 66.0413 398.403 65.604 399.064C65.1773 399.715 64.964 400.669 64.964 401.928V405H63.604V396.936H64.964V398.568C65.1987 398.056 65.5507 397.635 66.02 397.304C66.4893 396.973 66.9747 396.808 67.476 396.808C67.828 396.808 68.1373 396.856 68.404 396.952L68.324 398.264ZM69.729 396.936H71.089V405H69.729V396.936ZM70.401 395.416C70.1343 395.416 69.9103 395.325 69.729 395.144C69.5477 394.963 69.457 394.739 69.457 394.472C69.457 394.195 69.5477 393.965 69.729 393.784C69.9103 393.603 70.1343 393.512 70.401 393.512C70.6783 393.512 70.9077 393.603 71.089 393.784C71.281 393.965 71.377 394.195 71.377 394.472C71.377 394.739 71.281 394.963 71.089 395.144C70.9077 395.325 70.6783 395.416 70.401 395.416ZM79.9955 396.936L75.7715 407.912H74.3795L75.5475 404.888L72.3955 396.936H73.8675L76.2355 403.112L78.6035 396.936H79.9955ZM86.0331 399.752C86.0331 399.197 85.8518 398.76 85.4891 398.44C85.1371 398.109 84.6625 397.944 84.0651 397.944C83.5105 397.944 83.0518 398.099 82.6891 398.408C82.3265 398.717 82.1185 399.144 82.0651 399.688L80.8011 399.448C80.9185 398.648 81.2758 398.008 81.8731 397.528C82.4811 397.048 83.2118 396.808 84.0651 396.808C85.0571 396.808 85.8571 397.08 86.4651 397.624C87.0731 398.168 87.3771 398.904 87.3771 399.832V405H86.0331V403.624C85.7985 404.083 85.4358 404.451 84.9451 404.728C84.4651 404.995 83.9318 405.128 83.3451 405.128C82.5451 405.128 81.8891 404.909 81.3771 404.472C80.8758 404.024 80.6251 403.448 80.6251 402.744C80.6251 401.976 80.9398 401.373 81.5691 400.936C82.2091 400.499 83.1745 400.216 84.4651 400.088L86.0331 399.912V399.752ZM81.9851 402.728C81.9851 403.101 82.1291 403.411 82.4171 403.656C82.7158 403.891 83.0945 404.008 83.5531 404.008C84.3318 404.008 84.9398 403.768 85.3771 403.288C85.8145 402.808 86.0331 402.163 86.0331 401.352V400.968L84.4651 401.144C83.6545 401.229 83.0358 401.411 82.6091 401.688C82.1931 401.955 81.9851 402.301 81.9851 402.728ZM94.2478 398.136H92.8717V396.936H94.2478V396.184C94.2478 395.32 94.4664 394.653 94.9038 394.184C95.3411 393.704 95.9171 393.464 96.6318 393.464C97.0584 393.464 97.4211 393.507 97.7198 393.592L97.6558 394.808C97.3784 394.701 97.0958 394.648 96.8078 394.648C96.4451 394.648 96.1518 394.781 95.9278 395.048C95.7144 395.304 95.6078 395.645 95.6078 396.072V396.936H97.6718V398.136H95.6078V405H94.2478V398.136ZM98.3119 400.968C98.3119 400.2 98.4665 399.501 98.7759 398.872C99.0959 398.232 99.5492 397.731 100.136 397.368C100.733 396.995 101.427 396.808 102.216 396.808C102.984 396.808 103.661 396.979 104.248 397.32C104.835 397.651 105.283 398.109 105.592 398.696C105.912 399.272 106.072 399.907 106.072 400.6C106.072 400.824 106.061 401.032 106.04 401.224H99.6719C99.7145 402.035 99.9705 402.691 100.44 403.192C100.92 403.683 101.523 403.928 102.248 403.928C102.867 403.928 103.379 403.789 103.784 403.512C104.189 403.235 104.451 402.845 104.568 402.344L105.848 402.648C105.645 403.427 105.224 404.035 104.584 404.472C103.955 404.909 103.176 405.128 102.248 405.128C101.459 405.128 100.765 404.947 100.168 404.584C99.5812 404.211 99.1225 403.709 98.7919 403.08C98.4719 402.44 98.3119 401.736 98.3119 400.968ZM104.632 400.088C104.568 399.448 104.323 398.931 103.896 398.536C103.469 398.141 102.909 397.944 102.216 397.944C101.587 397.944 101.053 398.136 100.616 398.52C100.179 398.893 99.8905 399.416 99.7519 400.088H104.632ZM107.359 400.968C107.359 400.2 107.513 399.501 107.823 398.872C108.143 398.232 108.596 397.731 109.183 397.368C109.78 396.995 110.473 396.808 111.263 396.808C112.031 396.808 112.708 396.979 113.295 397.32C113.881 397.651 114.329 398.109 114.639 398.696C114.959 399.272 115.119 399.907 115.119 400.6C115.119 400.824 115.108 401.032 115.087 401.224H108.719C108.761 402.035 109.017 402.691 109.487 403.192C109.967 403.683 110.569 403.928 111.295 403.928C111.913 403.928 112.425 403.789 112.831 403.512C113.236 403.235 113.497 402.845 113.615 402.344L114.895 402.648C114.692 403.427 114.271 404.035 113.631 404.472C113.001 404.909 112.223 405.128 111.295 405.128C110.505 405.128 109.812 404.947 109.215 404.584C108.628 404.211 108.169 403.709 107.839 403.08C107.519 402.44 107.359 401.736 107.359 400.968ZM113.679 400.088C113.615 399.448 113.369 398.931 112.943 398.536C112.516 398.141 111.956 397.944 111.263 397.944C110.633 397.944 110.1 398.136 109.663 398.52C109.225 398.893 108.937 399.416 108.799 400.088H113.679Z" fill="#3C3C3C"/>
<path d="M349.478 371.736C350.358 370.712 350.886 369.896 350.886 368.744C350.886 368.488 350.838 368.232 350.774 367.992H349.014V366.744H350.294C350.054 366.184 349.846 365.592 349.846 364.936C349.846 362.904 351.254 361.672 353.238 361.672C354.95 361.672 356.23 362.648 356.582 364.088L355.238 364.52C354.918 363.496 354.294 362.968 353.238 362.968C352.134 362.968 351.334 363.656 351.334 364.984C351.334 365.64 351.558 366.184 351.798 366.744H355.174V367.992H352.278C352.342 368.232 352.374 368.488 352.374 368.76C352.374 369.768 351.766 371.096 351.046 371.688H354.566C355.35 371.688 355.702 371.208 356.086 370.552L357.253 371.224C356.646 372.328 355.926 373 354.742 373H349.478V371.736ZM362.155 369.304C359.851 369.304 358.203 367.704 358.203 365.496C358.203 363.256 359.899 361.672 362.267 361.672C364.763 361.672 366.427 363.688 366.427 366.792C366.427 370.904 364.251 373.128 361.243 373.128C360.123 373.128 359.035 372.776 358.187 372.104L358.923 370.968C359.595 371.544 360.411 371.832 361.259 371.832C363.419 371.832 365.019 370.056 365.067 367.624C364.555 368.648 363.403 369.304 362.155 369.304ZM359.675 365.544C359.675 367.016 360.747 368.072 362.251 368.072C363.755 368.072 364.827 367.016 364.827 365.544C364.827 364.056 363.755 362.984 362.251 362.984C360.747 362.984 359.691 364.056 359.675 365.544ZM366.823 374.696L367.751 371.336H369.575L367.783 374.696H366.823ZM375.428 373.128C372.612 373.128 371.14 370.84 371.14 367.4C371.14 363.96 372.612 361.672 375.428 361.672C378.212 361.672 379.716 363.96 379.716 367.4C379.716 370.84 378.212 373.128 375.428 373.128ZM372.628 367.4C372.628 370.088 373.588 371.816 375.428 371.816C377.236 371.816 378.212 370.088 378.212 367.4C378.212 364.712 377.236 362.968 375.428 362.968C373.588 362.968 372.628 364.712 372.628 367.4ZM385.303 373.128C382.487 373.128 381.015 370.84 381.015 367.4C381.015 363.96 382.487 361.672 385.303 361.672C388.087 361.672 389.591 363.96 389.591 367.4C389.591 370.84 388.087 373.128 385.303 373.128ZM382.503 367.4C382.503 370.088 383.463 371.816 385.303 371.816C387.111 371.816 388.087 370.088 388.087 367.4C388.087 364.712 387.111 362.968 385.303 362.968C383.463 362.968 382.503 364.712 382.503 367.4ZM395.178 373.128C392.362 373.128 390.89 370.84 390.89 367.4C390.89 363.96 392.362 361.672 395.178 361.672C397.962 361.672 399.466 363.96 399.466 367.4C399.466 370.84 397.962 373.128 395.178 373.128ZM392.378 367.4C392.378 370.088 393.338 371.816 395.178 371.816C396.986 371.816 397.962 370.088 397.962 367.4C397.962 364.712 396.986 362.968 395.178 362.968C393.338 362.968 392.378 364.712 392.378 367.4ZM402.189 373.128C401.613 373.128 401.213 372.728 401.213 372.168C401.213 371.624 401.613 371.208 402.189 371.208C402.733 371.208 403.165 371.624 403.165 372.168C403.165 372.728 402.733 373.128 402.189 373.128ZM409.194 373.128C406.378 373.128 404.906 370.84 404.906 367.4C404.906 363.96 406.378 361.672 409.194 361.672C411.978 361.672 413.482 363.96 413.482 367.4C413.482 370.84 411.978 373.128 409.194 373.128ZM406.394 367.4C406.394 370.088 407.354 371.816 409.194 371.816C411.002 371.816 411.978 370.088 411.978 367.4C411.978 364.712 411.002 362.968 409.194 362.968C407.354 362.968 406.394 364.712 406.394 367.4ZM419.069 373.128C416.253 373.128 414.781 370.84 414.781 367.4C414.781 363.96 416.253 361.672 419.069 361.672C421.853 361.672 423.357 363.96 423.357 367.4C423.357 370.84 421.853 373.128 419.069 373.128ZM416.269 367.4C416.269 370.088 417.229 371.816 419.069 371.816C420.877 371.816 421.853 370.088 421.853 367.4C421.853 364.712 420.877 362.968 419.069 362.968C417.229 362.968 416.269 364.712 416.269 367.4Z" fill="#3C3C3C"/>
<path d="M361.214 400.984V399.784H365.934V400.984H361.214ZM367.431 403.736C368.311 402.712 368.839 401.896 368.839 400.744C368.839 400.488 368.791 400.232 368.727 399.992H366.967V398.744H368.247C368.007 398.184 367.799 397.592 367.799 396.936C367.799 394.904 369.207 393.672 371.191 393.672C372.903 393.672 374.183 394.648 374.535 396.088L373.191 396.52C372.871 395.496 372.247 394.968 371.191 394.968C370.087 394.968 369.287 395.656 369.287 396.984C369.287 397.64 369.511 398.184 369.751 398.744H373.127V399.992H370.231C370.295 400.232 370.327 400.488 370.327 400.76C370.327 401.768 369.719 403.096 368.999 403.688H372.519C373.303 403.688 373.655 403.208 374.039 402.552L375.207 403.224C374.599 404.328 373.879 405 372.695 405H367.431V403.736ZM378.508 395.624C377.74 396.328 376.908 396.68 375.852 396.872V395.576C376.972 395.336 377.948 394.76 378.732 393.8H379.884V405H378.508V395.624ZM385.671 405.128C383.287 405.128 381.655 403.816 381.655 401.784C381.655 400.472 382.487 399.368 383.767 398.968C382.775 398.52 382.119 397.608 382.119 396.616C382.119 394.872 383.511 393.672 385.671 393.672C387.767 393.672 389.159 394.872 389.159 396.616C389.159 397.608 388.503 398.536 387.511 398.968C388.791 399.368 389.623 400.472 389.623 401.784C389.623 403.816 387.991 405.128 385.671 405.128ZM383.127 401.768C383.127 403.032 384.119 403.864 385.655 403.864C387.175 403.864 388.151 403.032 388.151 401.768C388.151 400.504 387.175 399.672 385.655 399.672C384.119 399.672 383.127 400.504 383.127 401.768ZM383.543 396.664C383.559 397.736 384.391 398.424 385.671 398.424C386.903 398.424 387.719 397.736 387.735 396.664C387.751 395.592 386.919 394.904 385.671 394.904C384.359 394.904 383.527 395.592 383.543 396.664ZM395.178 405.128C392.362 405.128 390.89 402.84 390.89 399.4C390.89 395.96 392.362 393.672 395.178 393.672C397.962 393.672 399.466 395.96 399.466 399.4C399.466 402.84 397.962 405.128 395.178 405.128ZM392.378 399.4C392.378 402.088 393.338 403.816 395.178 403.816C396.986 403.816 397.962 402.088 397.962 399.4C397.962 396.712 396.986 394.968 395.178 394.968C393.338 394.968 392.378 396.712 392.378 399.4ZM402.189 405.128C401.613 405.128 401.213 404.728 401.213 404.168C401.213 403.624 401.613 403.208 402.189 403.208C402.733 403.208 403.165 403.624 403.165 404.168C403.165 404.728 402.733 405.128 402.189 405.128ZM409.194 405.128C406.378 405.128 404.906 402.84 404.906 399.4C404.906 395.96 406.378 393.672 409.194 393.672C411.978 393.672 413.482 395.96 413.482 399.4C413.482 402.84 411.978 405.128 409.194 405.128ZM406.394 399.4C406.394 402.088 407.354 403.816 409.194 403.816C411.002 403.816 411.978 402.088 411.978 399.4C411.978 396.712 411.002 394.968 409.194 394.968C407.354 394.968 406.394 396.712 406.394 399.4ZM419.069 405.128C416.253 405.128 414.781 402.84 414.781 399.4C414.781 395.96 416.253 393.672 419.069 393.672C421.853 393.672 423.357 395.96 423.357 399.4C423.357 402.84 421.853 405.128 419.069 405.128ZM416.269 399.4C416.269 402.088 417.229 403.816 419.069 403.816C420.877 403.816 421.853 402.088 421.853 399.4C421.853 396.712 420.877 394.968 419.069 394.968C417.229 394.968 416.269 396.712 416.269 399.4Z" fill="#3C3C3C"/>
<line x1="53" y1="426.5" x2="424" y2="426.5" stroke="#999999"/>
<path d="M56.952 456.68H59.928L58.44 452.648L56.952 456.68ZM57.416 449.8H59.448L63.752 461H61.512L60.6 458.52H56.264L55.352 461H53.112L57.416 449.8ZM68.009 461.128C67.2197 461.128 66.5317 460.957 65.945 460.616C65.369 460.264 64.9263 459.773 64.617 459.144C64.3183 458.515 64.169 457.789 64.169 456.968C64.169 456.147 64.3183 455.421 64.617 454.792C64.9263 454.163 65.369 453.677 65.945 453.336C66.521 452.984 67.1983 452.808 67.977 452.808C68.4677 452.808 68.921 452.904 69.337 453.096C69.753 453.277 70.0783 453.523 70.313 453.832V449.672H72.329V461H70.313V460.072C70.1103 460.392 69.801 460.648 69.385 460.84C68.969 461.032 68.5103 461.128 68.009 461.128ZM66.169 456.968C66.169 457.693 66.361 458.28 66.745 458.728C67.1397 459.165 67.657 459.384 68.297 459.384C68.9477 459.384 69.465 459.165 69.849 458.728C70.2437 458.28 70.441 457.693 70.441 456.968C70.441 456.243 70.2437 455.661 69.849 455.224C69.465 454.776 68.9477 454.552 68.297 454.552C67.657 454.552 67.1397 454.776 66.745 455.224C66.361 455.661 66.169 456.243 66.169 456.968ZM73.4405 452.936H75.4725L77.3125 458.664L79.1525 452.936H81.2005L78.2565 461H76.3845L73.4405 452.936ZM86.7425 455.816C86.7425 455.357 86.5985 455 86.3105 454.744C86.0225 454.477 85.6332 454.344 85.1425 454.344C84.7052 454.344 84.3372 454.472 84.0385 454.728C83.7505 454.984 83.5852 455.325 83.5425 455.752L81.7505 455.432C81.8785 454.643 82.2572 454.008 82.8865 453.528C83.5265 453.048 84.2785 452.808 85.1425 452.808C86.2198 452.808 87.0785 453.096 87.7185 453.672C88.3692 454.237 88.6945 455.043 88.6945 456.088V461H86.7425V459.832C86.5185 460.227 86.1825 460.541 85.7345 460.776C85.2972 461.011 84.8278 461.128 84.3265 461.128C83.8038 461.128 83.3398 461.027 82.9345 460.824C82.5292 460.611 82.2092 460.323 81.9745 459.96C81.7505 459.597 81.6385 459.187 81.6385 458.728C81.6385 457.939 81.9372 457.325 82.5345 456.888C83.1318 456.451 84.0332 456.168 85.2385 456.04L86.7425 455.896V455.816ZM83.5905 458.664C83.5905 458.952 83.6972 459.187 83.9105 459.368C84.1238 459.549 84.4118 459.64 84.7745 459.64C85.3825 459.64 85.8625 459.437 86.2145 459.032C86.5665 458.627 86.7425 458.12 86.7425 457.512V457.336L85.2065 457.512C84.6838 457.576 84.2838 457.709 84.0065 457.912C83.7292 458.115 83.5905 458.365 83.5905 458.664ZM90.6635 452.936H92.6795V454.152C92.9462 453.747 93.2982 453.421 93.7355 453.176C94.1835 452.931 94.6848 452.808 95.2395 452.808C96.1248 452.808 96.8342 453.075 97.3675 453.608C97.9115 454.141 98.1835 454.845 98.1835 455.72V461H96.1675V456.2C96.1675 455.72 96.0288 455.336 95.7515 455.048C95.4742 454.749 95.1008 454.6 94.6315 454.6C94.0128 454.6 93.5328 454.851 93.1915 455.352C92.8502 455.853 92.6795 456.557 92.6795 457.464V461H90.6635V452.936ZM103.796 461.128C102.996 461.128 102.287 460.952 101.668 460.6C101.05 460.248 100.564 459.757 100.212 459.128C99.8709 458.499 99.7003 457.779 99.7003 456.968C99.7003 456.157 99.8709 455.437 100.212 454.808C100.564 454.179 101.05 453.688 101.668 453.336C102.287 452.984 102.996 452.808 103.796 452.808C104.831 452.808 105.684 453.059 106.356 453.56C107.039 454.061 107.45 454.739 107.588 455.592L105.62 455.976C105.546 455.549 105.348 455.208 105.028 454.952C104.719 454.685 104.33 454.552 103.86 454.552C103.231 454.552 102.73 454.771 102.356 455.208C101.983 455.645 101.796 456.232 101.796 456.968C101.796 457.704 101.983 458.291 102.356 458.728C102.73 459.165 103.231 459.384 103.86 459.384C104.33 459.384 104.714 459.267 105.012 459.032C105.322 458.787 105.524 458.445 105.62 458.008L107.588 458.408C107.439 459.251 107.023 459.917 106.34 460.408C105.668 460.888 104.82 461.128 103.796 461.128ZM108.669 456.968C108.669 456.243 108.818 455.565 109.117 454.936C109.426 454.296 109.88 453.784 110.477 453.4C111.074 453.005 111.8 452.808 112.653 452.808C113.517 452.808 114.253 452.995 114.861 453.368C115.469 453.741 115.928 454.227 116.237 454.824C116.546 455.421 116.701 456.045 116.701 456.696C116.701 457.016 116.69 457.283 116.669 457.496H110.685C110.77 458.104 111 458.579 111.373 458.92C111.746 459.261 112.221 459.432 112.797 459.432C113.266 459.432 113.661 459.325 113.981 459.112C114.301 458.899 114.514 458.595 114.621 458.2L116.509 458.712C116.285 459.469 115.842 460.061 115.181 460.488C114.52 460.915 113.714 461.128 112.765 461.128C111.912 461.128 111.176 460.936 110.557 460.552C109.938 460.157 109.469 459.64 109.149 459C108.829 458.36 108.669 457.683 108.669 456.968ZM114.541 456.024C114.488 455.523 114.301 455.117 113.981 454.808C113.661 454.499 113.218 454.344 112.653 454.344C112.152 454.344 111.73 454.488 111.389 454.776C111.058 455.064 110.84 455.48 110.733 456.024H114.541ZM122.07 452.936H124.086V453.864C124.32 453.544 124.646 453.288 125.062 453.096C125.488 452.904 125.963 452.808 126.486 452.808C127.243 452.808 127.904 452.984 128.47 453.336C129.035 453.677 129.467 454.163 129.766 454.792C130.075 455.421 130.23 456.147 130.23 456.968C130.23 457.789 130.07 458.515 129.75 459.144C129.43 459.773 128.976 460.264 128.39 460.616C127.803 460.957 127.12 461.128 126.342 461.128C125.872 461.128 125.435 461.048 125.03 460.888C124.635 460.717 124.32 460.488 124.086 460.2V463.912H122.07V452.936ZM123.958 456.968C123.958 457.693 124.15 458.28 124.534 458.728C124.928 459.165 125.451 459.384 126.102 459.384C126.742 459.384 127.254 459.165 127.638 458.728C128.032 458.28 128.23 457.693 128.23 456.968C128.23 456.243 128.032 455.661 127.638 455.224C127.254 454.776 126.742 454.552 126.102 454.552C125.451 454.552 124.928 454.776 124.534 455.224C124.15 455.661 123.958 456.243 123.958 456.968ZM136.43 455.816C136.43 455.357 136.286 455 135.998 454.744C135.71 454.477 135.321 454.344 134.83 454.344C134.393 454.344 134.025 454.472 133.726 454.728C133.438 454.984 133.273 455.325 133.23 455.752L131.438 455.432C131.566 454.643 131.945 454.008 132.574 453.528C133.214 453.048 133.966 452.808 134.83 452.808C135.907 452.808 136.766 453.096 137.406 453.672C138.057 454.237 138.382 455.043 138.382 456.088V461H136.43V459.832C136.206 460.227 135.87 460.541 135.422 460.776C134.985 461.011 134.515 461.128 134.014 461.128C133.491 461.128 133.027 461.027 132.622 460.824C132.217 460.611 131.897 460.323 131.662 459.96C131.438 459.597 131.326 459.187 131.326 458.728C131.326 457.939 131.625 457.325 132.222 456.888C132.819 456.451 133.721 456.168 134.926 456.04L136.43 455.896V455.816ZM133.278 458.664C133.278 458.952 133.385 459.187 133.598 459.368C133.811 459.549 134.099 459.64 134.462 459.64C135.07 459.64 135.55 459.437 135.902 459.032C136.254 458.627 136.43 458.12 136.43 457.512V457.336L134.894 457.512C134.371 457.576 133.971 457.709 133.694 457.912C133.417 458.115 133.278 458.365 133.278 458.664ZM147.351 452.936L143.095 463.912H141.047L142.295 460.68L139.159 452.936H141.351L143.287 458.12L145.287 452.936H147.351ZM148.46 452.936H150.476V454.168C150.711 453.741 151.02 453.411 151.404 453.176C151.799 452.931 152.263 452.808 152.796 452.808C153.436 452.808 153.97 452.941 154.396 453.208C154.823 453.464 155.127 453.837 155.308 454.328C155.543 453.891 155.895 453.528 156.364 453.24C156.834 452.952 157.372 452.808 157.98 452.808C158.844 452.808 159.538 453.064 160.06 453.576C160.594 454.077 160.86 454.728 160.86 455.528V461H158.844V456.088C158.844 455.597 158.716 455.213 158.46 454.936C158.204 454.659 157.842 454.52 157.372 454.52C156.839 454.52 156.418 454.733 156.108 455.16C155.81 455.587 155.66 456.163 155.66 456.888V461H153.644V456.088C153.644 455.597 153.516 455.213 153.26 454.936C153.015 454.659 152.663 454.52 152.204 454.52C151.66 454.52 151.234 454.739 150.924 455.176C150.626 455.603 150.476 456.179 150.476 456.904V461H148.46V452.936ZM162.388 456.968C162.388 456.243 162.537 455.565 162.836 454.936C163.145 454.296 163.598 453.784 164.196 453.4C164.793 453.005 165.518 452.808 166.372 452.808C167.236 452.808 167.972 452.995 168.58 453.368C169.188 453.741 169.646 454.227 169.956 454.824C170.265 455.421 170.42 456.045 170.42 456.696C170.42 457.016 170.409 457.283 170.388 457.496H164.404C164.489 458.104 164.718 458.579 165.092 458.92C165.465 459.261 165.94 459.432 166.516 459.432C166.985 459.432 167.38 459.325 167.7 459.112C168.02 458.899 168.233 458.595 168.34 458.2L170.228 458.712C170.004 459.469 169.561 460.061 168.9 460.488C168.238 460.915 167.433 461.128 166.484 461.128C165.63 461.128 164.894 460.936 164.276 460.552C163.657 460.157 163.188 459.64 162.868 459C162.548 458.36 162.388 457.683 162.388 456.968ZM168.26 456.024C168.206 455.523 168.02 455.117 167.7 454.808C167.38 454.499 166.937 454.344 166.372 454.344C165.87 454.344 165.449 454.488 165.108 454.776C164.777 455.064 164.558 455.48 164.452 456.024H168.26ZM171.945 452.936H173.961V454.152C174.227 453.747 174.579 453.421 175.017 453.176C175.465 452.931 175.966 452.808 176.521 452.808C177.406 452.808 178.115 453.075 178.649 453.608C179.193 454.141 179.465 454.845 179.465 455.72V461H177.449V456.2C177.449 455.72 177.31 455.336 177.033 455.048C176.755 454.749 176.382 454.6 175.913 454.6C175.294 454.6 174.814 454.851 174.473 455.352C174.131 455.853 173.961 456.557 173.961 457.464V461H171.945V452.936ZM185.932 460.92C185.548 461.059 185.116 461.128 184.636 461.128C183.783 461.128 183.095 460.893 182.572 460.424C182.049 459.955 181.788 459.267 181.788 458.36V454.632H180.428V452.936H181.788V450.568H183.804V452.936H185.836V454.632H183.804V458.168C183.804 458.541 183.895 458.835 184.076 459.048C184.268 459.251 184.524 459.352 184.844 459.352C185.217 459.352 185.532 459.288 185.788 459.16L185.932 460.92Z" fill="#3C3C3C"/>
<path d="M348.026 459.24C348.842 458.488 349.322 457.608 349.322 456.536C349.322 456.424 349.306 456.328 349.29 456.216H347.466V454.52H348.65C348.458 454.056 348.298 453.576 348.298 453.048C348.298 450.968 349.754 449.672 351.978 449.672C353.914 449.672 355.338 450.712 355.61 452.312L353.61 452.872C353.418 452.024 352.858 451.544 351.978 451.544C351.082 451.544 350.442 452.136 350.442 453.144C350.442 453.672 350.602 454.104 350.81 454.52H354.282V456.216H351.482C351.498 456.312 351.498 456.424 351.498 456.536C351.498 457.464 351.002 458.568 350.378 459.112H353.114C353.738 459.112 354.218 458.648 354.554 457.992L356.33 458.984C355.658 460.296 354.81 461 353.594 461H348.026V459.24ZM361.25 461.128C358.93 461.128 357.122 459.832 357.122 457.72C357.122 456.456 357.922 455.368 359.122 454.968C358.21 454.536 357.602 453.64 357.602 452.68C357.602 450.968 359.058 449.672 361.25 449.672C363.41 449.672 364.866 450.968 364.866 452.68C364.866 453.656 364.258 454.552 363.33 454.968C364.546 455.352 365.346 456.44 365.346 457.72C365.346 459.832 363.538 461.128 361.25 461.128ZM359.25 457.672C359.25 458.696 360.034 459.352 361.25 459.352C362.45 459.352 363.218 458.696 363.218 457.672C363.218 456.664 362.45 456.008 361.25 456.008C360.034 456.008 359.25 456.664 359.25 457.672ZM359.602 452.76C359.602 453.608 360.242 454.168 361.25 454.168C362.226 454.168 362.866 453.608 362.866 452.76C362.882 451.896 362.226 451.352 361.25 451.352C360.242 451.352 359.586 451.896 359.602 452.76ZM366.275 463L367.331 458.888H369.731L367.603 463H366.275ZM375.36 461.128C373.039 461.128 371.232 459.832 371.232 457.72C371.232 456.456 372.032 455.368 373.232 454.968C372.32 454.536 371.712 453.64 371.712 452.68C371.712 450.968 373.168 449.672 375.36 449.672C377.52 449.672 378.976 450.968 378.976 452.68C378.976 453.656 378.368 454.552 377.44 454.968C378.656 455.352 379.456 456.44 379.456 457.72C379.456 459.832 377.648 461.128 375.36 461.128ZM373.36 457.672C373.36 458.696 374.144 459.352 375.36 459.352C376.56 459.352 377.328 458.696 377.328 457.672C377.328 456.664 376.56 456.008 375.36 456.008C374.144 456.008 373.36 456.664 373.36 457.672ZM373.712 452.76C373.712 453.608 374.352 454.168 375.36 454.168C376.336 454.168 376.976 453.608 376.976 452.76C376.992 451.896 376.336 451.352 375.36 451.352C374.352 451.352 373.696 451.896 373.712 452.76ZM380.152 461L380.136 459.24L384.12 455.88C385.336 454.856 385.864 454.056 385.864 453.208C385.864 452.2 385.176 451.544 384.12 451.544C382.872 451.544 382.152 452.52 382.28 453.992L380.215 453.848C379.992 451.464 381.752 449.672 384.12 449.672C386.488 449.672 388.056 451.112 388.056 453.208C388.056 454.616 387.24 455.864 385.4 457.32L383.192 459.112H388.04V461H380.152ZM393.979 461.128C391.131 461.128 389.435 458.856 389.435 455.4C389.435 451.944 391.131 449.672 393.979 449.672C396.827 449.672 398.523 451.944 398.523 455.4C398.523 458.856 396.827 461.128 393.979 461.128ZM391.627 455.4C391.627 457.8 392.443 459.24 393.979 459.24C395.515 459.24 396.347 457.8 396.347 455.4C396.347 453 395.515 451.544 393.979 451.544C392.443 451.544 391.627 453 391.627 455.4ZM401.318 461.128C400.614 461.128 400.07 460.6 400.07 459.896C400.07 459.192 400.614 458.664 401.318 458.664C402.038 458.664 402.566 459.192 402.566 459.896C402.566 460.6 402.038 461.128 401.318 461.128ZM408.667 461.128C405.819 461.128 404.123 458.856 404.123 455.4C404.123 451.944 405.819 449.672 408.667 449.672C411.515 449.672 413.211 451.944 413.211 455.4C413.211 458.856 411.515 461.128 408.667 461.128ZM406.315 455.4C406.315 457.8 407.131 459.24 408.667 459.24C410.203 459.24 411.035 457.8 411.035 455.4C411.035 453 410.203 451.544 408.667 451.544C407.131 451.544 406.315 453 406.315 455.4ZM418.885 461.128C416.037 461.128 414.341 458.856 414.341 455.4C414.341 451.944 416.037 449.672 418.885 449.672C421.733 449.672 423.429 451.944 423.429 455.4C423.429 458.856 421.733 461.128 418.885 461.128ZM416.533 455.4C416.533 457.8 417.349 459.24 418.885 459.24C420.421 459.24 421.253 457.8 421.253 455.4C421.253 453 420.421 451.544 418.885 451.544C417.349 451.544 416.533 453 416.533 455.4Z" fill="#3C3C3C"/>
<path d="M250.148 110.225L247.324 118H246.17L249.422 109.469H250.166L250.148 110.225ZM252.516 118L249.686 110.225L249.668 109.469H250.412L253.676 118H252.516ZM252.369 114.842V115.768H247.576V114.842H252.369ZM255.882 112.92V118H254.793V111.66H255.824L255.882 112.92ZM255.66 114.59L255.156 114.572C255.16 114.139 255.216 113.738 255.326 113.371C255.435 113 255.597 112.678 255.812 112.404C256.027 112.131 256.295 111.92 256.615 111.771C256.935 111.619 257.306 111.543 257.728 111.543C258.025 111.543 258.298 111.586 258.548 111.672C258.798 111.754 259.015 111.885 259.199 112.064C259.382 112.244 259.525 112.475 259.627 112.756C259.728 113.037 259.779 113.377 259.779 113.775V118H258.695V113.828C258.695 113.496 258.638 113.23 258.525 113.031C258.416 112.832 258.259 112.688 258.056 112.598C257.853 112.504 257.615 112.457 257.341 112.457C257.021 112.457 256.754 112.514 256.539 112.627C256.324 112.74 256.152 112.896 256.023 113.096C255.894 113.295 255.8 113.523 255.742 113.781C255.687 114.035 255.66 114.305 255.66 114.59ZM259.767 113.992L259.041 114.215C259.045 113.867 259.101 113.533 259.211 113.213C259.324 112.893 259.486 112.607 259.697 112.357C259.912 112.107 260.175 111.91 260.488 111.766C260.8 111.617 261.158 111.543 261.56 111.543C261.9 111.543 262.201 111.588 262.463 111.678C262.728 111.768 262.951 111.906 263.13 112.094C263.314 112.277 263.453 112.514 263.546 112.803C263.64 113.092 263.687 113.436 263.687 113.834V118H262.597V113.822C262.597 113.467 262.541 113.191 262.427 112.996C262.318 112.797 262.162 112.658 261.959 112.58C261.759 112.498 261.521 112.457 261.244 112.457C261.005 112.457 260.795 112.498 260.611 112.58C260.427 112.662 260.273 112.775 260.148 112.92C260.023 113.061 259.927 113.223 259.861 113.406C259.798 113.59 259.767 113.785 259.767 113.992ZM265.191 114.9V114.766C265.191 114.309 265.257 113.885 265.39 113.494C265.523 113.1 265.714 112.758 265.964 112.469C266.214 112.176 266.517 111.949 266.872 111.789C267.228 111.625 267.626 111.543 268.068 111.543C268.513 111.543 268.913 111.625 269.269 111.789C269.628 111.949 269.933 112.176 270.183 112.469C270.437 112.758 270.63 113.1 270.763 113.494C270.896 113.885 270.962 114.309 270.962 114.766V114.9C270.962 115.357 270.896 115.781 270.763 116.172C270.63 116.562 270.437 116.904 270.183 117.197C269.933 117.486 269.63 117.713 269.275 117.877C268.923 118.037 268.525 118.117 268.079 118.117C267.634 118.117 267.234 118.037 266.878 117.877C266.523 117.713 266.218 117.486 265.964 117.197C265.714 116.904 265.523 116.562 265.39 116.172C265.257 115.781 265.191 115.357 265.191 114.9ZM266.275 114.766V114.9C266.275 115.217 266.312 115.516 266.386 115.797C266.46 116.074 266.571 116.32 266.72 116.535C266.872 116.75 267.062 116.92 267.288 117.045C267.515 117.166 267.779 117.227 268.079 117.227C268.376 117.227 268.636 117.166 268.859 117.045C269.085 116.92 269.273 116.75 269.421 116.535C269.57 116.32 269.681 116.074 269.755 115.797C269.833 115.516 269.872 115.217 269.872 114.9V114.766C269.872 114.453 269.833 114.158 269.755 113.881C269.681 113.6 269.568 113.352 269.415 113.137C269.267 112.918 269.079 112.746 268.853 112.621C268.63 112.496 268.368 112.434 268.068 112.434C267.771 112.434 267.509 112.496 267.282 112.621C267.06 112.746 266.872 112.918 266.72 113.137C266.571 113.352 266.46 113.6 266.386 113.881C266.312 114.158 266.275 114.453 266.275 114.766ZM276.35 116.535V111.66H277.44V118H276.403L276.35 116.535ZM276.555 115.199L277.007 115.188C277.007 115.609 276.962 116 276.872 116.359C276.786 116.715 276.645 117.023 276.45 117.285C276.255 117.547 275.999 117.752 275.682 117.9C275.366 118.045 274.981 118.117 274.528 118.117C274.22 118.117 273.936 118.072 273.679 117.982C273.425 117.893 273.206 117.754 273.022 117.566C272.839 117.379 272.696 117.135 272.595 116.834C272.497 116.533 272.448 116.172 272.448 115.75V111.66H273.532V115.762C273.532 116.047 273.563 116.283 273.626 116.471C273.692 116.654 273.78 116.801 273.889 116.91C274.003 117.016 274.128 117.09 274.264 117.133C274.405 117.176 274.55 117.197 274.698 117.197C275.159 117.197 275.524 117.109 275.794 116.934C276.063 116.754 276.257 116.514 276.374 116.213C276.495 115.908 276.555 115.57 276.555 115.199ZM280.327 113.014V118H279.243V111.66H280.268L280.327 113.014ZM280.069 114.59L279.618 114.572C279.621 114.139 279.686 113.738 279.811 113.371C279.936 113 280.112 112.678 280.338 112.404C280.565 112.131 280.834 111.92 281.147 111.771C281.463 111.619 281.813 111.543 282.196 111.543C282.508 111.543 282.789 111.586 283.039 111.672C283.289 111.754 283.502 111.887 283.678 112.07C283.858 112.254 283.995 112.492 284.088 112.785C284.182 113.074 284.229 113.428 284.229 113.846V118H283.139V113.834C283.139 113.502 283.09 113.236 282.993 113.037C282.895 112.834 282.752 112.688 282.565 112.598C282.377 112.504 282.147 112.457 281.873 112.457C281.604 112.457 281.358 112.514 281.135 112.627C280.916 112.74 280.727 112.896 280.567 113.096C280.411 113.295 280.287 113.523 280.198 113.781C280.112 114.035 280.069 114.305 280.069 114.59ZM288.68 111.66V112.492H285.252V111.66H288.68ZM286.412 110.119H287.496V116.43C287.496 116.645 287.529 116.807 287.596 116.916C287.662 117.025 287.748 117.098 287.854 117.133C287.959 117.168 288.072 117.186 288.193 117.186C288.283 117.186 288.377 117.178 288.475 117.162C288.576 117.143 288.652 117.127 288.703 117.115L288.709 118C288.623 118.027 288.51 118.053 288.369 118.076C288.232 118.104 288.066 118.117 287.871 118.117C287.605 118.117 287.361 118.064 287.139 117.959C286.916 117.854 286.738 117.678 286.605 117.432C286.477 117.182 286.412 116.846 286.412 116.424V110.119Z" fill="black" fill-opacity="0.6"/>
<defs>
<clipPath id="clip0_3087_17644">
<rect width="32" height="32" fill="white" transform="translate(413 24)"/>
</clipPath>
</defs>
</svg>
